<svg version="1.1" viewBox="0.0 0.0 600.0 371.0" fill="none" stroke="none" stroke-linecap="square" stroke-miterlimit="10" width="600" height="371" xmlns:xlink="http://www.w3.org/1999/xlink" xmlns="http://www.w3.org/2000/svg"><path fill="#ffffff" d="M0 0L600.0 0L600.0 371.0L0 371.0L0 0Z" fill-rule="nonzero"/><path stroke="#333333" stroke-width="1.0" stroke-linecap="butt" d="M45.5 318.5L581.5 318.5" fill-rule="nonzero"/><path stroke="#cccccc" stroke-width="1.0" stroke-linecap="butt" d="M45.5 251.5L581.5 251.5" fill-rule="nonzero"/><path stroke="#cccccc" stroke-width="1.0" stroke-linecap="butt" d="M45.5 185.5L581.5 185.5" fill-rule="nonzero"/><path stroke="#cccccc" stroke-width="1.0" stroke-linecap="butt" d="M45.5 118.5L581.5 118.5" fill-rule="nonzero"/><path stroke="#cccccc" stroke-width="1.0" stroke-linecap="butt" d="M45.5 51.5L581.5 51.5" fill-rule="nonzero"/><clipPath id="id_0"><path d="M45.55 51.916668L581.45 51.916668L581.45 318.45L45.55 318.45L45.55 51.916668Z" clip-rule="nonzero"/></clipPath><path stroke="#000000" stroke-width="2.0" stroke-linecap="butt" stroke-opacity="0.0" clip-path="url(#id_0)" d="M94.0 318.0L72.0 318.0L72.0 87.0C72.0 85.89543 72.89543 85.0 74.0 85.0L92.0 85.0C93.10457 85.0 94.0 85.89543 94.0 87.0Z" fill-rule="nonzero"/><path fill="#4285f4" clip-path="url(#id_0)" d="M94.0 318.0L72.0 318.0L72.0 87.0C72.0 85.89543 72.89543 85.0 74.0 85.0L92.0 85.0C93.10457 85.0 94.0 85.89543 94.0 87.0Z" fill-rule="nonzero"/><path stroke="#000000" stroke-width="2.0" stroke-linecap="butt" stroke-opacity="0.0" clip-path="url(#id_0)" d="M167.0 318.0L145.0 318.0L145.0 221.0C145.0 219.89543 145.89543 219.0 147.0 219.0L165.0 219.0C166.10457 219.0 167.0 219.89543 167.0 221.0Z" fill-rule="nonzero"/><path fill="#4285f4" clip-path="url(#id_0)" d="M167.0 318.0L145.0 318.0L145.0 221.0C145.0 219.89543 145.89543 219.0 147.0 219.0L165.0 219.0C166.10457 219.0 167.0 219.89543 167.0 221.0Z" fill-rule="nonzero"/><path stroke="#000000" stroke-width="2.0" stroke-linecap="butt" stroke-opacity="0.0" clip-path="url(#id_0)" d="M240.0 318.0L218.0 318.0L218.0 287.0C218.0 285.89542 218.89543 285.0 220.0 285.0L238.0 285.0C239.10457 285.0 240.0 285.89542 240.0 287.0Z" fill-rule="nonzero"/><path fill="#4285f4" clip-path="url(#id_0)" d="M240.0 318.0L218.0 318.0L218.0 287.0C218.0 285.89542 218.89543 285.0 220.0 285.0L238.0 285.0C239.10457 285.0 240.0 285.89542 240.0 287.0Z" fill-rule="nonzero"/><path stroke="#000000" stroke-width="2.0" stroke-linecap="butt" stroke-opacity="0.0" clip-path="url(#id_0)" d="M313.0 318.0L291.0 318.0L291.0 221.0C291.0 219.89543 291.89542 219.0 293.0 219.0L311.0 219.0C312.10458 219.0 313.0 219.89543 313.0 221.0Z" fill-rule="nonzero"/><path fill="#4285f4" clip-path="url(#id_0)" d="M313.0 318.0L291.0 318.0L291.0 221.0C291.0 219.89543 291.89542 219.0 293.0 219.0L311.0 219.0C312.10458 219.0 313.0 219.89543 313.0 221.0Z" fill-rule="nonzero"/><path stroke="#000000" stroke-width="2.0" stroke-linecap="butt" stroke-opacity="0.0" clip-path="url(#id_0)" d="M385.0 318.0L363.0 318.0L363.0 221.0C363.0 219.89543 363.89542 219.0 365.0 219.0L383.0 219.0C384.10458 219.0 385.0 219.89543 385.0 221.0Z" fill-rule="nonzero"/><path fill="#4285f4" clip-path="url(#id_0)" d="M385.0 318.0L363.0 318.0L363.0 221.0C363.0 219.89543 363.89542 219.0 365.0 219.0L383.0 219.0C384.10458 219.0 385.0 219.89543 385.0 221.0Z" fill-rule="nonzero"/><path stroke="#000000" stroke-width="2.0" stroke-linecap="butt" stroke-opacity="0.0" clip-path="url(#id_0)" d="M458.0 318.0L436.0 318.0L436.0 187.0C436.0 185.89543 436.89542 185.0 438.0 185.0L456.0 185.0C457.10458 185.0 458.0 185.89543 458.0 187.0Z" fill-rule="nonzero"/><path fill="#4285f4" clip-path="url(#id_0)" d="M458.0 318.0L436.0 318.0L436.0 187.0C436.0 185.89543 436.89542 185.0 438.0 185.0L456.0 185.0C457.10458 185.0 458.0 185.89543 458.0 187.0Z" fill-rule="nonzero"/><path stroke="#000000" stroke-width="2.0" stroke-linecap="butt" stroke-opacity="0.0" clip-path="url(#id_0)" d="M531.0 318.0L509.0 318.0L509.0 87.0C509.0 85.89543 509.89542 85.0 511.0 85.0L529.0 85.0C530.10455 85.0 531.0 85.89543 531.0 87.0Z" fill-rule="nonzero"/><path fill="#4285f4" clip-path="url(#id_0)" d="M531.0 318.0L509.0 318.0L509.0 87.0C509.0 85.89543 509.89542 85.0 511.0 85.0L529.0 85.0C530.10455 85.0 531.0 85.89543 531.0 87.0Z" fill-rule="nonzero"/><path stroke="#000000" stroke-width="2.0" stroke-linecap="butt" stroke-opacity="0.0" clip-path="url(#id_0)" d="M118.0 318.0L96.0 318.0L96.0 221.0C96.0 219.89543 96.89543 219.0 98.0 219.0L116.0 219.0C117.10457 219.0 118.0 219.89543 118.0 221.0Z" fill-rule="nonzero"/><path fill="#ea4335" clip-path="url(#id_0)" d="M118.0 318.0L96.0 318.0L96.0 221.0C96.0 219.89543 96.89543 219.0 98.0 219.0L116.0 219.0C117.10457 219.0 118.0 219.89543 118.0 221.0Z" fill-rule="nonzero"/><path stroke="#000000" stroke-width="2.0" stroke-linecap="butt" stroke-opacity="0.0" clip-path="url(#id_0)" d="M191.0 318.0L169.0 318.0L169.0 221.0C169.0 219.89543 169.89543 219.0 171.0 219.0L189.0 219.0C190.10457 219.0 191.0 219.89543 191.0 221.0Z" fill-rule="nonzero"/><path fill="#ea4335" clip-path="url(#id_0)" d="M191.0 318.0L169.0 318.0L169.0 221.0C169.0 219.89543 169.89543 219.0 171.0 219.0L189.0 219.0C190.10457 219.0 191.0 219.89543 191.0 221.0Z" fill-rule="nonzero"/><path stroke="#000000" stroke-width="2.0" stroke-linecap="butt" stroke-opacity="0.0" clip-path="url(#id_0)" d="M264.0 318.0L242.0 318.0L242.0 287.0C242.0 285.89542 242.89543 285.0 244.0 285.0L262.0 285.0C263.10458 285.0 264.0 285.89542 264.0 287.0Z" fill-rule="nonzero"/><path fill="#ea4335" clip-path="url(#id_0)" d="M264.0 318.0L242.0 318.0L242.0 287.0C242.0 285.89542 242.89543 285.0 244.0 285.0L262.0 285.0C263.10458 285.0 264.0 285.89542 264.0 287.0Z" fill-rule="nonzero"/><path stroke="#000000" stroke-width="2.0" stroke-linecap="butt" stroke-opacity="0.0" clip-path="url(#id_0)" d="M337.0 318.0L315.0 318.0L315.0 318.0L337.0 318.0Z" fill-rule="nonzero"/><path fill="#ea4335" clip-path="url(#id_0)" d="M337.0 318.0L315.0 318.0L315.0 318.0L337.0 318.0Z" fill-rule="nonzero"/><path stroke="#000000" stroke-width="2.0" stroke-linecap="butt" stroke-opacity="0.0" clip-path="url(#id_0)" d="M409.0 318.0L387.0 318.0L387.0 221.0C387.0 219.89543 387.89542 219.0 389.0 219.0L407.0 219.0C408.10458 219.0 409.0 219.89543 409.0 221.0Z" fill-rule="nonzero"/><path fill="#ea4335" clip-path="url(#id_0)" d="M409.0 318.0L387.0 318.0L387.0 221.0C387.0 219.89543 387.89542 219.0 389.0 219.0L407.0 219.0C408.10458 219.0 409.0 219.89543 409.0 221.0Z" fill-rule="nonzero"/><path stroke="#000000" stroke-width="2.0" stroke-linecap="butt" stroke-opacity="0.0" clip-path="url(#id_0)" d="M482.0 318.0L460.0 318.0L460.0 318.0L482.0 318.0Z" fill-rule="nonzero"/><path fill="#ea4335" clip-path="url(#id_0)" d="M482.0 318.0L460.0 318.0L460.0 318.0L482.0 318.0Z" fill-rule="nonzero"/><path stroke="#000000" stroke-width="2.0" stroke-linecap="butt" stroke-opacity="0.0" clip-path="url(#id_0)" d="M555.0 318.0L533.0 318.0L533.0 187.0C533.0 185.89543 533.89545 185.0 535.0 185.0L553.0 185.0C554.10455 185.0 555.0 185.89543 555.0 187.0Z" fill-rule="nonzero"/><path fill="#ea4335" clip-path="url(#id_0)" d="M555.0 318.0L533.0 318.0L533.0 187.0C533.0 185.89543 533.89545 185.0 535.0 185.0L553.0 185.0C554.10455 185.0 555.0 185.89543 555.0 187.0Z" fill-rule="nonzero"/><path stroke="#4285f4" stroke-width="3.0" stroke-linejoin="round" stroke-linecap="round" d="M85.71875 94.11146L82.1875 102.03333L81.046875 102.03333L84.5625 94.39271L79.953125 94.39271L79.953125 93.50208L85.71875 93.50208L85.71875 94.11146Z" fill-rule="nonzero"/><path fill="#ffffff" d="M85.71875 94.11146L82.1875 102.03333L81.046875 102.03333L84.5625 94.39271L79.953125 94.39271L79.953125 93.50208L85.71875 93.50208L85.71875 94.11146Z" fill-rule="nonzero"/><path stroke="#4285f4" stroke-width="3.0" stroke-linejoin="round" stroke-linecap="round" d="M154.78125 230.50313L155.59375 230.50313Q156.375 230.4875 156.8125 230.09688Q157.25 229.70625 157.25 229.03438Q157.25 227.53438 155.75 227.53438Q155.04688 227.53438 154.625 227.94063Q154.21875 228.34688 154.21875 229.00313L153.125 229.00313Q153.125 227.9875 153.85938 227.31563Q154.60938 226.64375 155.75 226.64375Q156.95312 226.64375 157.64062 227.28438Q158.32812 227.925 158.32812 229.06563Q158.32812 229.62813 157.96875 230.14375Q157.60938 230.65938 156.98438 230.925Q157.6875 231.14375 158.0625 231.65938Q158.45312 232.175 158.45312 232.925Q158.45312 234.06563 157.70312 234.75313Q156.95312 235.425 155.75 235.425Q154.5625 235.425 153.79688 234.76875Q153.04688 234.1125 153.04688 233.05L154.14062 233.05Q154.14062 233.72188 154.57812 234.12813Q155.01562 234.53438 155.76562 234.53438Q156.54688 234.53438 156.95312 234.12813Q157.375 233.70625 157.375 232.94063Q157.375 232.20625 156.92188 231.81563Q156.46875 231.40938 155.59375 231.39375L154.78125 231.39375L154.78125 230.50313Z" fill-rule="nonzero"/><path fill="#ffffff" d="M154.78125 230.50313L155.59375 230.50313Q156.375 230.4875 156.8125 230.09688Q157.25 229.70625 157.25 229.03438Q157.25 227.53438 155.75 227.53438Q155.04688 227.53438 154.625 227.94063Q154.21875 228.34688 154.21875 229.00313L153.125 229.00313Q153.125 227.9875 153.85938 227.31563Q154.60938 226.64375 155.75 226.64375Q156.95312 226.64375 157.64062 227.28438Q158.32812 227.925 158.32812 229.06563Q158.32812 229.62813 157.96875 230.14375Q157.60938 230.65938 156.98438 230.925Q157.6875 231.14375 158.0625 231.65938Q158.45312 232.175 158.45312 232.925Q158.45312 234.06563 157.70312 234.75313Q156.95312 235.425 155.75 235.425Q154.5625 235.425 153.79688 234.76875Q153.04688 234.1125 153.04688 233.05L154.14062 233.05Q154.14062 233.72188 154.57812 234.12813Q155.01562 234.53438 155.76562 234.53438Q156.54688 234.53438 156.95312 234.12813Q157.375 233.70625 157.375 232.94063Q157.375 232.20625 156.92188 231.81563Q156.46875 231.40938 155.59375 231.39375L154.78125 231.39375L154.78125 230.50313Z" fill-rule="nonzero"/><path stroke="#4285f4" stroke-width="3.0" stroke-linejoin="round" stroke-linecap="round" d="M229.76562 301.93332L228.6875 301.93332L228.6875 294.71457L226.5 295.51144L226.5 294.52707L229.60938 293.3552L229.76562 293.3552L229.76562 301.93332Z" fill-rule="nonzero"/><path fill="#ffffff" d="M229.76562 301.93332L228.6875 301.93332L228.6875 294.71457L226.5 295.51144L226.5 294.52707L229.60938 293.3552L229.76562 293.3552L229.76562 301.93332Z" fill-rule="nonzero"/><path stroke="#4285f4" stroke-width="3.0" stroke-linejoin="round" stroke-linecap="round" d="M300.78125 230.50313L301.59375 230.50313Q302.375 230.4875 302.8125 230.09688Q303.25 229.70625 303.25 229.03438Q303.25 227.53438 301.75 227.53438Q301.04688 227.53438 300.625 227.94063Q300.21875 228.34688 300.21875 229.00313L299.125 229.00313Q299.125 227.9875 299.85938 227.31563Q300.60938 226.64375 301.75 226.64375Q302.95312 226.64375 303.64062 227.28438Q304.32812 227.925 304.32812 229.06563Q304.32812 229.62813 303.96875 230.14375Q303.60938 230.65938 302.98438 230.925Q303.6875 231.14375 304.0625 231.65938Q304.45312 232.175 304.45312 232.925Q304.45312 234.06563 303.70312 234.75313Q302.95312 235.425 301.75 235.425Q300.5625 235.425 299.79688 234.76875Q299.04688 234.1125 299.04688 233.05L300.14062 233.05Q300.14062 233.72188 300.57812 234.12813Q301.01562 234.53438 301.76562 234.53438Q302.54688 234.53438 302.95312 234.12813Q303.375 233.70625 303.375 232.94063Q303.375 232.20625 302.92188 231.81563Q302.46875 231.40938 301.59375 231.39375L300.78125 231.39375L300.78125 230.50313Z" fill-rule="nonzero"/><path fill="#ffffff" d="M300.78125 230.50313L301.59375 230.50313Q302.375 230.4875 302.8125 230.09688Q303.25 229.70625 303.25 229.03438Q303.25 227.53438 301.75 227.53438Q301.04688 227.53438 300.625 227.94063Q300.21875 228.34688 300.21875 229.00313L299.125 229.00313Q299.125 227.9875 299.85938 227.31563Q300.60938 226.64375 301.75 226.64375Q302.95312 226.64375 303.64062 227.28438Q304.32812 227.925 304.32812 229.06563Q304.32812 229.62813 303.96875 230.14375Q303.60938 230.65938 302.98438 230.925Q303.6875 231.14375 304.0625 231.65938Q304.45312 232.175 304.45312 232.925Q304.45312 234.06563 303.70312 234.75313Q302.95312 235.425 301.75 235.425Q300.5625 235.425 299.79688 234.76875Q299.04688 234.1125 299.04688 233.05L300.14062 233.05Q300.14062 233.72188 300.57812 234.12813Q301.01562 234.53438 301.76562 234.53438Q302.54688 234.53438 302.95312 234.12813Q303.375 233.70625 303.375 232.94063Q303.375 232.20625 302.92188 231.81563Q302.46875 231.40938 301.59375 231.39375L300.78125 231.39375L300.78125 230.50313Z" fill-rule="nonzero"/><path stroke="#4285f4" stroke-width="3.0" stroke-linejoin="round" stroke-linecap="round" d="M372.78125 230.50313L373.59375 230.50313Q374.375 230.4875 374.8125 230.09688Q375.25 229.70625 375.25 229.03438Q375.25 227.53438 373.75 227.53438Q373.04688 227.53438 372.625 227.94063Q372.21875 228.34688 372.21875 229.00313L371.125 229.00313Q371.125 227.9875 371.85938 227.31563Q372.60938 226.64375 373.75 226.64375Q374.95312 226.64375 375.64062 227.28438Q376.32812 227.925 376.32812 229.06563Q376.32812 229.62813 375.96875 230.14375Q375.60938 230.65938 374.98438 230.925Q375.6875 231.14375 376.0625 231.65938Q376.45312 232.175 376.45312 232.925Q376.45312 234.06563 375.70312 234.75313Q374.95312 235.425 373.75 235.425Q372.5625 235.425 371.79688 234.76875Q371.04688 234.1125 371.04688 233.05L372.14062 233.05Q372.14062 233.72188 372.57812 234.12813Q373.01562 234.53438 373.76562 234.53438Q374.54688 234.53438 374.95312 234.12813Q375.375 233.70625 375.375 232.94063Q375.375 232.20625 374.92188 231.81563Q374.46875 231.40938 373.59375 231.39375L372.78125 231.39375L372.78125 230.50313Z" fill-rule="nonzero"/><path fill="#ffffff" d="M372.78125 230.50313L373.59375 230.50313Q374.375 230.4875 374.8125 230.09688Q375.25 229.70625 375.25 229.03438Q375.25 227.53438 373.75 227.53438Q373.04688 227.53438 372.625 227.94063Q372.21875 228.34688 372.21875 229.00313L371.125 229.00313Q371.125 227.9875 371.85938 227.31563Q372.60938 226.64375 373.75 226.64375Q374.95312 226.64375 375.64062 227.28438Q376.32812 227.925 376.32812 229.06563Q376.32812 229.62813 375.96875 230.14375Q375.60938 230.65938 374.98438 230.925Q375.6875 231.14375 376.0625 231.65938Q376.45312 232.175 376.45312 232.925Q376.45312 234.06563 375.70312 234.75313Q374.95312 235.425 373.75 235.425Q372.5625 235.425 371.79688 234.76875Q371.04688 234.1125 371.04688 233.05L372.14062 233.05Q372.14062 233.72188 372.57812 234.12813Q373.01562 234.53438 373.76562 234.53438Q374.54688 234.53438 374.95312 234.12813Q375.375 233.70625 375.375 232.94063Q375.375 232.20625 374.92188 231.81563Q374.46875 231.40938 373.59375 231.39375L372.78125 231.39375L372.78125 230.50313Z" fill-rule="nonzero"/><path stroke="#4285f4" stroke-width="3.0" stroke-linejoin="round" stroke-linecap="round" d="M448.78125 199.12396L449.96875 199.12396L449.96875 199.99896L448.78125 199.99896L448.78125 201.98334L447.70312 201.98334L447.70312 199.99896L443.8125 199.99896L443.8125 199.35834L447.625 193.45209L448.78125 193.45209L448.78125 199.12396ZM445.04688 199.12396L447.70312 199.12396L447.70312 194.93646L447.5625 195.17084L445.04688 199.12396Z" fill-rule="nonzero"/><path fill="#ffffff" d="M448.78125 199.12396L449.96875 199.12396L449.96875 199.99896L448.78125 199.99896L448.78125 201.98334L447.70312 201.98334L447.70312 199.99896L443.8125 199.99896L443.8125 199.35834L447.625 193.45209L448.78125 193.45209L448.78125 199.12396ZM445.04688 199.12396L447.70312 199.12396L447.70312 194.93646L447.5625 195.17084L445.04688 199.12396Z" fill-rule="nonzero"/><path stroke="#4285f4" stroke-width="3.0" stroke-linejoin="round" stroke-linecap="round" d="M522.71875 94.11146L519.1875 102.03333L518.0469 102.03333L521.5625 94.39271L516.9531 94.39271L516.9531 93.50208L522.71875 93.50208L522.71875 94.11146Z" fill-rule="nonzero"/><path fill="#ffffff" d="M522.71875 94.11146L519.1875 102.03333L518.0469 102.03333L521.5625 94.39271L516.9531 94.39271L516.9531 93.50208L522.71875 93.50208L522.71875 94.11146Z" fill-rule="nonzero"/><path stroke="#ea4335" stroke-width="3.0" stroke-linejoin="round" stroke-linecap="round" d="M105.78125 230.50313L106.59375 230.50313Q107.375 230.4875 107.8125 230.09688Q108.25 229.70625 108.25 229.03438Q108.25 227.53438 106.75 227.53438Q106.046875 227.53438 105.625 227.94063Q105.21875 228.34688 105.21875 229.00313L104.125 229.00313Q104.125 227.9875 104.859375 227.31563Q105.609375 226.64375 106.75 226.64375Q107.953125 226.64375 108.640625 227.28438Q109.328125 227.925 109.328125 229.06563Q109.328125 229.62813 108.96875 230.14375Q108.609375 230.65938 107.984375 230.925Q108.6875 231.14375 109.0625 231.65938Q109.453125 232.175 109.453125 232.925Q109.453125 234.06563 108.703125 234.75313Q107.953125 235.425 106.75 235.425Q105.5625 235.425 104.796875 234.76875Q104.046875 234.1125 104.046875 233.05L105.140625 233.05Q105.140625 233.72188 105.578125 234.12813Q106.015625 234.53438 106.765625 234.53438Q107.546875 234.53438 107.953125 234.12813Q108.375 233.70625 108.375 232.94063Q108.375 232.20625 107.921875 231.81563Q107.46875 231.40938 106.59375 231.39375L105.78125 231.39375L105.78125 230.50313Z" fill-rule="nonzero"/><path fill="#ffffff" d="M105.78125 230.50313L106.59375 230.50313Q107.375 230.4875 107.8125 230.09688Q108.25 229.70625 108.25 229.03438Q108.25 227.53438 106.75 227.53438Q106.046875 227.53438 105.625 227.94063Q105.21875 228.34688 105.21875 229.00313L104.125 229.00313Q104.125 227.9875 104.859375 227.31563Q105.609375 226.64375 106.75 226.64375Q107.953125 226.64375 108.640625 227.28438Q109.328125 227.925 109.328125 229.06563Q109.328125 229.62813 108.96875 230.14375Q108.609375 230.65938 107.984375 230.925Q108.6875 231.14375 109.0625 231.65938Q109.453125 232.175 109.453125 232.925Q109.453125 234.06563 108.703125 234.75313Q107.953125 235.425 106.75 235.425Q105.5625 235.425 104.796875 234.76875Q104.046875 234.1125 104.046875 233.05L105.140625 233.05Q105.140625 233.72188 105.578125 234.12813Q106.015625 234.53438 106.765625 234.53438Q107.546875 234.53438 107.953125 234.12813Q108.375 233.70625 108.375 232.94063Q108.375 232.20625 107.921875 231.81563Q107.46875 231.40938 106.59375 231.39375L105.78125 231.39375L105.78125 230.50313Z" fill-rule="nonzero"/><path stroke="#ea4335" stroke-width="3.0" stroke-linejoin="round" stroke-linecap="round" d="M178.78125 230.50313L179.59375 230.50313Q180.375 230.4875 180.8125 230.09688Q181.25 229.70625 181.25 229.03438Q181.25 227.53438 179.75 227.53438Q179.04688 227.53438 178.625 227.94063Q178.21875 228.34688 178.21875 229.00313L177.125 229.00313Q177.125 227.9875 177.85938 227.31563Q178.60938 226.64375 179.75 226.64375Q180.95312 226.64375 181.64062 227.28438Q182.32812 227.925 182.32812 229.06563Q182.32812 229.62813 181.96875 230.14375Q181.60938 230.65938 180.98438 230.925Q181.6875 231.14375 182.0625 231.65938Q182.45312 232.175 182.45312 232.925Q182.45312 234.06563 181.70312 234.75313Q180.95312 235.425 179.75 235.425Q178.5625 235.425 177.79688 234.76875Q177.04688 234.1125 177.04688 233.05L178.14062 233.05Q178.14062 233.72188 178.57812 234.12813Q179.01562 234.53438 179.76562 234.53438Q180.54688 234.53438 180.95312 234.12813Q181.375 233.70625 181.375 232.94063Q181.375 232.20625 180.92188 231.81563Q180.46875 231.40938 179.59375 231.39375L178.78125 231.39375L178.78125 230.50313Z" fill-rule="nonzero"/><path fill="#ffffff" d="M178.78125 230.50313L179.59375 230.50313Q180.375 230.4875 180.8125 230.09688Q181.25 229.70625 181.25 229.03438Q181.25 227.53438 179.75 227.53438Q179.04688 227.53438 178.625 227.94063Q178.21875 228.34688 178.21875 229.00313L177.125 229.00313Q177.125 227.9875 177.85938 227.31563Q178.60938 226.64375 179.75 226.64375Q180.95312 226.64375 181.64062 227.28438Q182.32812 227.925 182.32812 229.06563Q182.32812 229.62813 181.96875 230.14375Q181.60938 230.65938 180.98438 230.925Q181.6875 231.14375 182.0625 231.65938Q182.45312 232.175 182.45312 232.925Q182.45312 234.06563 181.70312 234.75313Q180.95312 235.425 179.75 235.425Q178.5625 235.425 177.79688 234.76875Q177.04688 234.1125 177.04688 233.05L178.14062 233.05Q178.14062 233.72188 178.57812 234.12813Q179.01562 234.53438 179.76562 234.53438Q180.54688 234.53438 180.95312 234.12813Q181.375 233.70625 181.375 232.94063Q181.375 232.20625 180.92188 231.81563Q180.46875 231.40938 179.59375 231.39375L178.78125 231.39375L178.78125 230.50313Z" fill-rule="nonzero"/><path stroke="#ea4335" stroke-width="3.0" stroke-linejoin="round" stroke-linecap="round" d="M253.76562 301.93332L252.6875 301.93332L252.6875 294.71457L250.5 295.51144L250.5 294.52707L253.60938 293.3552L253.76562 293.3552L253.76562 301.93332Z" fill-rule="nonzero"/><path fill="#ffffff" d="M253.76562 301.93332L252.6875 301.93332L252.6875 294.71457L250.5 295.51144L250.5 294.52707L253.60938 293.3552L253.76562 293.3552L253.76562 301.93332Z" fill-rule="nonzero"/><path stroke="#ffffff" stroke-width="3.0" stroke-linejoin="round" stroke-linecap="round" d="M328.5625 299.8094Q328.5625 301.71564 327.90625 302.65314Q327.26562 303.575 325.875 303.575Q324.51562 303.575 323.85938 302.66876Q323.20312 301.7625 323.17188 299.95L323.17188 298.5125Q323.17188 296.6219 323.8125 295.71564Q324.46875 294.79376 325.85938 294.79376Q327.23438 294.79376 327.89062 295.6844Q328.54688 296.5594 328.5625 298.40314L328.5625 299.8094ZM327.46875 298.325Q327.46875 296.95 327.07812 296.325Q326.70312 295.6844 325.85938 295.6844Q325.03125 295.6844 324.64062 296.325Q324.26562 296.95 324.26562 298.2469L324.26562 299.98126Q324.26562 301.35626 324.65625 302.02814Q325.0625 302.6844 325.875 302.6844Q326.67188 302.6844 327.0625 302.0594Q327.45312 301.4344 327.46875 300.10626L327.46875 298.325Z" fill-rule="nonzero"/><path fill="#ea4335" d="M328.5625 299.8094Q328.5625 301.71564 327.90625 302.65314Q327.26562 303.575 325.875 303.575Q324.51562 303.575 323.85938 302.66876Q323.20312 301.7625 323.17188 299.95L323.17188 298.5125Q323.17188 296.6219 323.8125 295.71564Q324.46875 294.79376 325.85938 294.79376Q327.23438 294.79376 327.89062 295.6844Q328.54688 296.5594 328.5625 298.40314L328.5625 299.8094ZM327.46875 298.325Q327.46875 296.95 327.07812 296.325Q326.70312 295.6844 325.85938 295.6844Q325.03125 295.6844 324.64062 296.325Q324.26562 296.95 324.26562 298.2469L324.26562 299.98126Q324.26562 301.35626 324.65625 302.02814Q325.0625 302.6844 325.875 302.6844Q326.67188 302.6844 327.0625 302.0594Q327.45312 301.4344 327.46875 300.10626L327.46875 298.325Z" fill-rule="nonzero"/><path stroke="#ea4335" stroke-width="3.0" stroke-linejoin="round" stroke-linecap="round" d="M396.78125 230.50313L397.59375 230.50313Q398.375 230.4875 398.8125 230.09688Q399.25 229.70625 399.25 229.03438Q399.25 227.53438 397.75 227.53438Q397.04688 227.53438 396.625 227.94063Q396.21875 228.34688 396.21875 229.00313L395.125 229.00313Q395.125 227.9875 395.85938 227.31563Q396.60938 226.64375 397.75 226.64375Q398.95312 226.64375 399.64062 227.28438Q400.32812 227.925 400.32812 229.06563Q400.32812 229.62813 399.96875 230.14375Q399.60938 230.65938 398.98438 230.925Q399.6875 231.14375 400.0625 231.65938Q400.45312 232.175 400.45312 232.925Q400.45312 234.06563 399.70312 234.75313Q398.95312 235.425 397.75 235.425Q396.5625 235.425 395.79688 234.76875Q395.04688 234.1125 395.04688 233.05L396.14062 233.05Q396.14062 233.72188 396.57812 234.12813Q397.01562 234.53438 397.76562 234.53438Q398.54688 234.53438 398.95312 234.12813Q399.375 233.70625 399.375 232.94063Q399.375 232.20625 398.92188 231.81563Q398.46875 231.40938 397.59375 231.39375L396.78125 231.39375L396.78125 230.50313Z" fill-rule="nonzero"/><path fill="#ffffff" d="M396.78125 230.50313L397.59375 230.50313Q398.375 230.4875 398.8125 230.09688Q399.25 229.70625 399.25 229.03438Q399.25 227.53438 397.75 227.53438Q397.04688 227.53438 396.625 227.94063Q396.21875 228.34688 396.21875 229.00313L395.125 229.00313Q395.125 227.9875 395.85938 227.31563Q396.60938 226.64375 397.75 226.64375Q398.95312 226.64375 399.64062 227.28438Q400.32812 227.925 400.32812 229.06563Q400.32812 229.62813 399.96875 230.14375Q399.60938 230.65938 398.98438 230.925Q399.6875 231.14375 400.0625 231.65938Q400.45312 232.175 400.45312 232.925Q400.45312 234.06563 399.70312 234.75313Q398.95312 235.425 397.75 235.425Q396.5625 235.425 395.79688 234.76875Q395.04688 234.1125 395.04688 233.05L396.14062 233.05Q396.14062 233.72188 396.57812 234.12813Q397.01562 234.53438 397.76562 234.53438Q398.54688 234.53438 398.95312 234.12813Q399.375 233.70625 399.375 232.94063Q399.375 232.20625 398.92188 231.81563Q398.46875 231.40938 397.59375 231.39375L396.78125 231.39375L396.78125 230.50313Z" fill-rule="nonzero"/><path stroke="#ffffff" stroke-width="3.0" stroke-linejoin="round" stroke-linecap="round" d="M473.5625 299.8094Q473.5625 301.71564 472.90625 302.65314Q472.26562 303.575 470.875 303.575Q469.51562 303.575 468.85938 302.66876Q468.20312 301.7625 468.17188 299.95L468.17188 298.5125Q468.17188 296.6219 468.8125 295.71564Q469.46875 294.79376 470.85938 294.79376Q472.23438 294.79376 472.89062 295.6844Q473.54688 296.5594 473.5625 298.40314L473.5625 299.8094ZM472.46875 298.325Q472.46875 296.95 472.07812 296.325Q471.70312 295.6844 470.85938 295.6844Q470.03125 295.6844 469.64062 296.325Q469.26562 296.95 469.26562 298.2469L469.26562 299.98126Q469.26562 301.35626 469.65625 302.02814Q470.0625 302.6844 470.875 302.6844Q471.67188 302.6844 472.0625 302.0594Q472.45312 301.4344 472.46875 300.10626L472.46875 298.325Z" fill-rule="nonzero"/><path fill="#ea4335" d="M473.5625 299.8094Q473.5625 301.71564 472.90625 302.65314Q472.26562 303.575 470.875 303.575Q469.51562 303.575 468.85938 302.66876Q468.20312 301.7625 468.17188 299.95L468.17188 298.5125Q468.17188 296.6219 468.8125 295.71564Q469.46875 294.79376 470.85938 294.79376Q472.23438 294.79376 472.89062 295.6844Q473.54688 296.5594 473.5625 298.40314L473.5625 299.8094ZM472.46875 298.325Q472.46875 296.95 472.07812 296.325Q471.70312 295.6844 470.85938 295.6844Q470.03125 295.6844 469.64062 296.325Q469.26562 296.95 469.26562 298.2469L469.26562 299.98126Q469.26562 301.35626 469.65625 302.02814Q470.0625 302.6844 470.875 302.6844Q471.67188 302.6844 472.0625 302.0594Q472.45312 301.4344 472.46875 300.10626L472.46875 298.325Z" fill-rule="nonzero"/><path stroke="#ea4335" stroke-width="3.0" stroke-linejoin="round" stroke-linecap="round" d="M545.78125 199.12396L546.96875 199.12396L546.96875 199.99896L545.78125 199.99896L545.78125 201.98334L544.7031 201.98334L544.7031 199.99896L540.8125 199.99896L540.8125 199.35834L544.625 193.45209L545.78125 193.45209L545.78125 199.12396ZM542.0469 199.12396L544.7031 199.12396L544.7031 194.93646L544.5625 195.17084L542.0469 199.12396Z" fill-rule="nonzero"/><path fill="#ffffff" d="M545.78125 199.12396L546.96875 199.12396L546.96875 199.99896L545.78125 199.99896L545.78125 201.98334L544.7031 201.98334L544.7031 199.99896L540.8125 199.99896L540.8125 199.35834L544.625 193.45209L545.78125 193.45209L545.78125 199.12396ZM542.0469 199.12396L544.7031 199.12396L544.7031 194.93646L544.5625 195.17084L542.0469 199.12396Z" fill-rule="nonzero"/><path fill="#000000" d="M33.05 318.21564Q33.05 316.6844 33.3625 315.7625Q33.675 314.825 34.284374 314.325Q34.909374 313.825 35.846874 313.825Q36.534374 313.825 37.05 314.10626Q37.58125 314.3875 37.925 314.91876Q38.26875 315.4344 38.45625 316.1844Q38.64375 316.9344 38.64375 318.21564Q38.64375 319.73126 38.33125 320.65314Q38.034374 321.575 37.409374 322.09064Q36.8 322.59064 35.846874 322.59064Q34.6125 322.59064 33.89375 321.7Q33.05 320.6375 33.05 318.21564ZM34.128124 318.21564Q34.128124 320.325 34.628124 321.02814Q35.128124 321.73126 35.846874 321.73126Q36.58125 321.73126 37.065624 321.02814Q37.565624 320.325 37.565624 318.21564Q37.565624 316.09064 37.065624 315.40314Q36.58125 314.7 35.83125 314.7Q35.1125 314.7 34.675 315.3094Q34.128124 316.09064 34.128124 318.21564Z" fill-rule="nonzero"/><path fill="#000000" d="M38.596874 254.80104L38.596874 255.81667L32.909374 255.81667Q32.909374 255.44167 33.034374 255.08229Q33.253124 254.50417 33.721874 253.94167Q34.20625 253.37917 35.1125 252.64479Q36.51875 251.48854 37.003124 250.81667Q37.503124 250.14479 37.503124 249.55104Q37.503124 248.92604 37.05 248.50417Q36.596874 248.06667 35.878124 248.06667Q35.1125 248.06667 34.659374 248.51979Q34.20625 248.97292 34.190624 249.78542L33.1125 249.67604Q33.221874 248.45729 33.940624 247.83229Q34.675 247.19167 35.909374 247.19167Q37.14375 247.19167 37.8625 247.87917Q38.58125 248.56667 38.58125 249.58229Q38.58125 250.09792 38.3625 250.59792Q38.159374 251.08229 37.659374 251.64479Q37.175 252.19167 36.05 253.14479Q35.096874 253.94167 34.815624 254.23854Q34.55 254.51979 34.378124 254.80104L38.596874 254.80104Z" fill-rule="nonzero"/><path fill="#000000" d="M36.425 189.18333L36.425 187.12083L32.70625 187.12083L32.70625 186.15208L36.628124 180.58958L37.4875 180.58958L37.4875 186.15208L38.64375 186.15208L38.64375 187.12083L37.4875 187.12083L37.4875 189.18333L36.425 189.18333ZM36.425 186.15208L36.425 182.29271L33.7375 186.15208L36.425 186.15208Z" fill-rule="nonzero"/><path fill="#000000" d="M38.51875 116.06563L37.471874 116.14375Q37.33125 115.51875 37.08125 115.2375Q36.64375 114.78438 36.01875 114.78438Q35.51875 114.78438 35.128124 115.06563Q34.64375 115.44063 34.346874 116.14375Q34.065624 116.83125 34.05 118.1125Q34.425 117.53438 34.971874 117.25313Q35.534374 116.97188 36.14375 116.97188Q37.190624 116.97188 37.925 117.75313Q38.675 118.53438 38.675 119.75313Q38.675 120.56563 38.315624 121.26875Q37.971874 121.95625 37.3625 122.33125Q36.753124 122.69063 35.9875 122.69063Q34.659374 122.69063 33.83125 121.72188Q33.003124 120.75313 33.003124 118.53438Q33.003124 116.03438 33.925 114.90938Q34.721874 113.925 36.08125 113.925Q37.096874 113.925 37.7375 114.50313Q38.39375 115.06563 38.51875 116.06563ZM34.221874 119.76875Q34.221874 120.31563 34.440624 120.81563Q34.675 121.3 35.08125 121.56563Q35.503124 121.83125 35.971874 121.83125Q36.628124 121.83125 37.1125 121.3Q37.596874 120.75313 37.596874 119.83125Q37.596874 118.94063 37.1125 118.425Q36.64375 117.90938 35.925 117.90938Q35.20625 117.90938 34.70625 118.425Q34.221874 118.94063 34.221874 119.76875Z" fill-rule="nonzero"/><path fill="#000000" d="M34.675 51.260418Q34.01875 51.010418 33.690624 50.572918Q33.378124 50.119793 33.378124 49.510418Q33.378124 48.572918 34.05 47.932293Q34.7375 47.291668 35.846874 47.291668Q36.971874 47.291668 37.659374 47.947918Q38.346874 48.604168 38.346874 49.541668Q38.346874 50.135418 38.034374 50.572918Q37.721874 51.010418 37.08125 51.260418Q37.878124 51.510418 38.284374 52.088543Q38.690624 52.666668 38.690624 53.463543Q38.690624 54.557293 37.909374 55.307293Q37.14375 56.057293 35.8625 56.057293Q34.596874 56.057293 33.815624 55.307293Q33.034374 54.557293 33.034374 53.432293Q33.034374 52.588543 33.45625 52.026043Q33.89375 51.463543 34.675 51.260418ZM34.45625 49.463543Q34.45625 50.072918 34.846874 50.463543Q35.253124 50.854168 35.878124 50.854168Q36.4875 50.854168 36.878124 50.479168Q37.26875 50.088543 37.26875 49.526043Q37.26875 48.947918 36.8625 48.557293Q36.45625 48.151043 35.8625 48.151043Q35.253124 48.151043 34.846874 48.541668Q34.45625 48.932293 34.45625 49.463543ZM34.128124 53.432293Q34.128124 53.885418 34.33125 54.307293Q34.55 54.729168 34.971874 54.963543Q35.39375 55.197918 35.878124 55.197918Q36.628124 55.197918 37.1125 54.713543Q37.6125 54.229168 37.6125 53.479168Q37.6125 52.713543 37.1125 52.213543Q36.6125 51.713543 35.846874 51.713543Q35.096874 51.713543 34.6125 52.213543Q34.128124 52.697918 34.128124 53.432293Z" fill-rule="nonzero"/><path fill="#000000" d="M84.202805 335.45L84.202805 326.85626L88.015305 326.85626Q89.171555 326.85626 89.765305 327.09064Q90.359055 327.325 90.71843 327.91876Q91.077805 328.4969 91.077805 329.2Q91.077805 330.1219 90.484055 330.7469Q89.890305 331.3719 88.65593 331.54376Q89.109055 331.7625 89.34343 331.96564Q89.84343 332.41876 90.28093 333.10626L91.78093 335.45L90.34343 335.45L89.21843 333.66876Q88.71843 332.8875 88.390305 332.48126Q88.077805 332.075 87.81218 331.91876Q87.56218 331.7469 87.296555 331.66876Q87.109055 331.6375 86.671555 331.6375L85.34343 331.6375L85.34343 335.45L84.202805 335.45ZM85.34343 330.65314L87.796555 330.65314Q88.56218 330.65314 88.99968 330.4969Q89.452805 330.325 89.671555 329.98126Q89.90593 329.6219 89.90593 329.2Q89.90593 328.59064 89.452805 328.2Q89.015305 327.8094 88.06218 327.8094L85.34343 327.8094L85.34343 330.65314ZM97.140305 335.45L97.140305 334.52814Q96.40593 335.59064 95.15593 335.59064Q94.609055 335.59064 94.12468 335.3875Q93.65593 335.16876 93.421555 334.85626Q93.18718 334.52814 93.09343 334.0594Q93.03093 333.7625 93.03093 333.075L93.03093 329.23126L94.09343 329.23126L94.09343 332.6844Q94.09343 333.4969 94.15593 333.79376Q94.24968 334.2 94.56218 334.45Q94.890305 334.6844 95.37468 334.6844Q95.84343 334.6844 96.24968 334.45Q96.671555 334.2 96.84343 333.77814Q97.03093 333.35626 97.03093 332.5594L97.03093 329.23126L98.077805 329.23126L98.077805 335.45L97.140305 335.45ZM100.06218 335.45L100.06218 329.23126L100.99968 329.23126L100.99968 330.10626Q101.68718 329.09064 102.984055 329.09064Q103.546555 329.09064 104.015305 329.29376Q104.49968 329.4969 104.734055 329.825Q104.96843 330.15314 105.06218 330.59064Q105.109055 330.8875 105.109055 331.6219L105.109055 335.45L104.06218 335.45L104.06218 331.66876Q104.06218 331.0125 103.93718 330.7Q103.81218 330.3875 103.49968 330.2Q103.18718 329.9969 102.765305 329.9969Q102.09343 329.9969 101.59343 330.4344Q101.109055 330.85626 101.109055 332.04376L101.109055 335.45L100.06218 335.45Z" fill-rule="nonzero"/><path fill="#000000" d="M157.05186 335.45L157.05186 326.85626L158.19249 326.85626L158.19249 331.1219L162.45811 326.85626L164.00499 326.85626L160.39561 330.34064L164.16124 335.45L162.66124 335.45L159.59874 331.10626L158.19249 332.46564L158.19249 335.45L157.05186 335.45ZM164.97374 328.075L164.97374 326.85626L166.03624 326.85626L166.03624 328.075L164.97374 328.075ZM164.97374 335.45L164.97374 329.23126L166.03624 329.23126L166.03624 335.45L164.97374 335.45ZM172.03624 333.16876L173.06749 333.3094Q172.89561 334.3719 172.19249 334.98126Q171.48936 335.59064 170.47374 335.59064Q169.19249 335.59064 168.41124 334.7625Q167.64561 333.91876 167.64561 332.35626Q167.64561 331.35626 167.97374 330.60626Q168.31749 329.84064 168.98936 329.46564Q169.67686 329.09064 170.48936 329.09064Q171.48936 329.09064 172.12999 329.60626Q172.78624 330.10626 172.97374 331.0594L171.94249 331.21564Q171.80186 330.59064 171.42686 330.27814Q171.05186 329.95 170.52061 329.95Q169.72374 329.95 169.22374 330.52814Q168.72374 331.09064 168.72374 332.325Q168.72374 333.59064 169.20811 334.15314Q169.69249 334.71564 170.45811 334.71564Q171.08311 334.71564 171.48936 334.34064Q171.91124 333.96564 172.03624 333.16876ZM173.97374 335.45L173.97374 326.85626L175.03624 326.85626L175.03624 331.7625L177.52061 329.23126L178.89561 329.23126L176.50499 331.52814L179.12999 335.45L177.83311 335.45L175.77061 332.2625L175.03624 332.98126L175.03624 335.45L173.97374 335.45Z" fill-rule="nonzero"/><path fill="#000000" d="M230.65094 332.4344L231.77594 332.73126Q231.41656 334.1219 230.49469 334.85626Q229.57281 335.59064 228.22906 335.59064Q226.83844 335.59064 225.96344 335.02814Q225.08844 334.46564 224.63531 333.40314Q224.18219 332.325 224.18219 331.09064Q224.18219 329.7469 224.69781 328.7469Q225.21344 327.7469 226.15094 327.23126Q227.10406 326.71564 228.24469 326.71564Q229.52594 326.71564 230.40094 327.3719Q231.29156 328.02814 231.63531 329.21564L230.51031 329.48126Q230.21344 328.54376 229.63531 328.1219Q229.07281 327.6844 228.21344 327.6844Q227.22906 327.6844 226.55719 328.16876Q225.90094 328.6375 225.61969 329.4344Q225.35406 330.23126 225.35406 331.09064Q225.35406 332.1844 225.66656 332.9969Q225.99469 333.8094 226.66656 334.21564Q227.33844 334.6219 228.13531 334.6219Q229.08844 334.6219 229.74469 334.075Q230.41656 333.52814 230.65094 332.4344ZM233.36969 335.45L233.36969 329.23126L234.32281 329.23126L234.32281 330.16876Q234.68219 329.5125 234.97906 329.3094Q235.29156 329.09064 235.66656 329.09064Q236.19781 329.09064 236.74469 329.41876L236.38531 330.40314Q235.99469 330.16876 235.61969 330.16876Q235.26031 330.16876 234.97906 330.3875Q234.71344 330.59064 234.60406 330.96564Q234.41656 331.52814 234.41656 332.1844L234.41656 335.45L233.36969 335.45ZM236.99469 332.34064Q236.99469 330.60626 237.94781 329.77814Q238.74469 329.09064 239.90094 329.09064Q241.18219 329.09064 241.99469 329.9344Q242.82281 330.7625 242.82281 332.2469Q242.82281 333.45 242.46344 334.1375Q242.10406 334.825 241.40094 335.21564Q240.71344 335.59064 239.90094 335.59064Q238.60406 335.59064 237.79156 334.7625Q236.99469 333.91876 236.99469 332.34064ZM238.07281 332.34064Q238.07281 333.52814 238.58844 334.1219Q239.11969 334.71564 239.90094 334.71564Q240.69781 334.71564 241.21344 334.1219Q241.72906 333.52814 241.72906 332.3094Q241.72906 331.15314 241.19781 330.5594Q240.68219 329.96564 239.90094 329.96564Q239.11969 329.96564 238.58844 330.5594Q238.07281 331.1375 238.07281 332.34064ZM243.96344 333.59064L244.99469 333.4344Q245.08844 334.0594 245.47906 334.3875Q245.88531 334.71564 246.61969 334.71564Q247.33844 334.71564 247.68219 334.4344Q248.04156 334.1375 248.04156 333.73126Q248.04156 333.3719 247.72906 333.16876Q247.51031 333.02814 246.65094 332.8094Q245.49469 332.5125 245.04156 332.3094Q244.60406 332.09064 244.36969 331.71564Q244.13531 331.34064 244.13531 330.8719Q244.13531 330.46564 244.32281 330.10626Q244.51031 329.7469 244.83844 329.5125Q245.08844 329.34064 245.51031 329.21564Q245.93219 329.09064 246.43219 329.09064Q247.15094 329.09064 247.69781 329.3094Q248.26031 329.5125 248.52594 329.8719Q248.79156 330.23126 248.88531 330.825L247.85406 330.96564Q247.79156 330.4969 247.44781 330.23126Q247.11969 329.95 246.49469 329.95Q245.77594 329.95 245.46344 330.2Q245.15094 330.4344 245.15094 330.7625Q245.15094 330.96564 245.27594 331.1219Q245.41656 331.29376 245.68219 331.40314Q245.83844 331.46564 246.61969 331.66876Q247.74469 331.98126 248.18219 332.16876Q248.61969 332.35626 248.86969 332.71564Q249.11969 333.075 249.11969 333.6219Q249.11969 334.15314 248.80719 334.6219Q248.51031 335.075 247.93219 335.34064Q247.35406 335.59064 246.61969 335.59064Q245.40094 335.59064 244.76031 335.09064Q244.13531 334.575 243.96344 333.59064ZM250.96344 333.59064L251.99469 333.4344Q252.08844 334.0594 252.47906 334.3875Q252.88531 334.71564 253.61969 334.71564Q254.33844 334.71564 254.68219 334.4344Q255.04156 334.1375 255.04156 333.73126Q255.04156 333.3719 254.72906 333.16876Q254.51031 333.02814 253.65094 332.8094Q252.49469 332.5125 252.04156 332.3094Q251.60406 332.09064 251.36969 331.71564Q251.13531 331.34064 251.13531 330.8719Q251.13531 330.46564 251.32281 330.10626Q251.51031 329.7469 251.83844 329.5125Q252.08844 329.34064 252.51031 329.21564Q252.93219 329.09064 253.43219 329.09064Q254.15094 329.09064 254.69781 329.3094Q255.26031 329.5125 255.52594 329.8719Q255.79156 330.23126 255.88531 330.825L254.85406 330.96564Q254.79156 330.4969 254.44781 330.23126Q254.11969 329.95 253.49469 329.95Q252.77594 329.95 252.46344 330.2Q252.15094 330.4344 252.15094 330.7625Q252.15094 330.96564 252.27594 331.1219Q252.41656 331.29376 252.68219 331.40314Q252.83844 331.46564 253.61969 331.66876Q254.74469 331.98126 255.18219 332.16876Q255.61969 332.35626 255.86969 332.71564Q256.1197 333.075 256.1197 333.6219Q256.1197 334.15314 255.80719 334.6219Q255.51031 335.075 254.93219 335.34064Q254.35406 335.59064 253.61969 335.59064Q252.40094 335.59064 251.76031 335.09064Q251.13531 334.575 250.96344 333.59064Z" fill-rule="nonzero"/><path fill="#000000" d="M222.63531 349.45L222.63531 344.04376L221.69781 344.04376L221.69781 343.23126L222.63531 343.23126L222.63531 342.5594Q222.63531 341.9344 222.74469 341.6375Q222.90094 341.21564 223.27594 340.96564Q223.66656 340.71564 224.35406 340.71564Q224.80719 340.71564 225.33844 340.825L225.18219 341.73126Q224.85406 341.6844 224.55719 341.6844Q224.07281 341.6844 223.86969 341.8875Q223.68219 342.09064 223.68219 342.65314L223.68219 343.23126L224.90094 343.23126L224.90094 344.04376L223.68219 344.04376L223.68219 349.45L222.63531 349.45ZM225.38531 342.075L225.38531 340.85626L226.44781 340.85626L226.44781 342.075L225.38531 342.075ZM225.38531 349.45L225.38531 343.23126L226.44781 343.23126L226.44781 349.45L225.38531 349.45ZM228.38531 349.45L228.38531 343.23126L229.32281 343.23126L229.32281 344.10626Q230.01031 343.09064 231.30719 343.09064Q231.86969 343.09064 232.33844 343.29376Q232.82281 343.4969 233.05719 343.825Q233.29156 344.15314 233.38531 344.59064Q233.43219 344.8875 233.43219 345.6219L233.43219 349.45L232.38531 349.45L232.38531 345.66876Q232.38531 345.0125 232.26031 344.7Q232.13531 344.3875 231.82281 344.2Q231.51031 343.9969 231.08844 343.9969Q230.41656 343.9969 229.91656 344.4344Q229.43219 344.85626 229.43219 346.04376L229.43219 349.45L228.38531 349.45ZM235.18219 349.96564L236.21344 350.1219Q236.27594 350.59064 236.57281 350.8094Q236.96344 351.10626 237.63531 351.10626Q238.36969 351.10626 238.76031 350.8094Q239.16656 350.5125 239.30719 349.9969Q239.40094 349.66876 239.38531 348.6375Q238.69781 349.45 237.66656 349.45Q236.38531 349.45 235.68219 348.52814Q234.97906 347.59064 234.97906 346.3094Q234.97906 345.41876 235.29156 344.66876Q235.61969 343.90314 236.22906 343.4969Q236.83844 343.09064 237.66656 343.09064Q238.77594 343.09064 239.49469 343.98126L239.49469 343.23126L240.46344 343.23126L240.46344 348.60626Q240.46344 350.0594 240.16656 350.66876Q239.86969 351.27814 239.22906 351.6219Q238.58844 351.98126 237.65094 351.98126Q236.54156 351.98126 235.85406 351.48126Q235.16656 350.98126 235.18219 349.96564ZM236.05719 346.23126Q236.05719 347.45 236.54156 348.0125Q237.02594 348.575 237.76031 348.575Q238.49469 348.575 238.97906 348.0125Q239.47906 347.45 239.47906 346.2625Q239.47906 345.1219 238.96344 344.54376Q238.46344 343.96564 237.74469 343.96564Q237.04156 343.96564 236.54156 344.54376Q236.05719 345.10626 236.05719 346.23126ZM246.63531 347.45L247.72906 347.575Q247.47906 348.52814 246.77594 349.0594Q246.07281 349.59064 244.99469 349.59064Q243.63531 349.59064 242.82281 348.7469Q242.02594 347.90314 242.02594 346.3875Q242.02594 344.825 242.83844 343.96564Q243.65094 343.09064 244.93219 343.09064Q246.18219 343.09064 246.96344 343.9344Q247.76031 344.77814 247.76031 346.325Q247.76031 346.41876 247.76031 346.60626L243.11969 346.60626Q243.18219 347.6375 243.69781 348.1844Q244.21344 348.71564 244.99469 348.71564Q245.57281 348.71564 245.97906 348.41876Q246.40094 348.10626 246.63531 347.45ZM243.18219 345.7469L246.65094 345.7469Q246.58844 344.95 246.26031 344.5594Q245.74469 343.95 244.94781 343.95Q244.21344 343.95 243.71344 344.4344Q243.22906 344.91876 243.18219 345.7469ZM249.36969 349.45L249.36969 343.23126L250.32281 343.23126L250.32281 344.16876Q250.68219 343.5125 250.97906 343.3094Q251.29156 343.09064 251.66656 343.09064Q252.19781 343.09064 252.74469 343.41876L252.38531 344.40314Q251.99469 344.16876 251.61969 344.16876Q251.26031 344.16876 250.97906 344.3875Q250.71344 344.59064 250.60406 344.96564Q250.41656 345.52814 250.41656 346.1844L250.41656 349.45L249.36969 349.45ZM252.96344 347.59064L253.99469 347.4344Q254.08844 348.0594 254.47906 348.3875Q254.88531 348.71564 255.61969 348.71564Q256.33844 348.71564 256.6822 348.4344Q257.04156 348.1375 257.04156 347.73126Q257.04156 347.3719 256.72906 347.16876Q256.5103 347.02814 255.65094 346.8094Q254.49469 346.5125 254.04156 346.3094Q253.60406 346.09064 253.36969 345.71564Q253.13531 345.34064 253.13531 344.8719Q253.13531 344.46564 253.32281 344.10626Q253.51031 343.7469 253.83844 343.5125Q254.08844 343.34064 254.51031 343.21564Q254.93219 343.09064 255.43219 343.09064Q256.15094 343.09064 256.6978 343.3094Q257.2603 343.5125 257.52594 343.8719Q257.79156 344.23126 257.8853 344.825L256.85406 344.96564Q256.79156 344.4969 256.4478 344.23126Q256.1197 343.95 255.49469 343.95Q254.77594 343.95 254.46344 344.2Q254.15094 344.4344 254.15094 344.7625Q254.15094 344.96564 254.27594 345.1219Q254.41656 345.29376 254.68219 345.40314Q254.83844 345.46564 255.61969 345.66876Q256.7447 345.98126 257.1822 346.16876Q257.6197 346.35626 257.8697 346.71564Q258.1197 347.075 258.1197 347.6219Q258.1197 348.15314 257.8072 348.6219Q257.5103 349.075 256.9322 349.34064Q256.35406 349.59064 255.61969 349.59064Q254.40094 349.59064 253.76031 349.09064Q253.13531 348.575 252.96344 347.59064Z" fill-rule="nonzero"/><path fill="#000000" d="M298.04688 332.6844L299.10938 332.59064Q299.1875 333.2469 299.46875 333.65314Q299.75 334.0594 300.32812 334.325Q300.92188 334.575 301.65625 334.575Q302.29688 334.575 302.79688 334.3875Q303.29688 334.1844 303.53125 333.85626Q303.78125 333.5125 303.78125 333.1219Q303.78125 332.71564 303.54688 332.41876Q303.3125 332.10626 302.78125 331.90314Q302.42188 331.7625 301.23438 331.48126Q300.0625 331.2 299.59375 330.95Q298.96875 330.6219 298.67188 330.15314Q298.375 329.66876 298.375 329.075Q298.375 328.4344 298.73438 327.8719Q299.10938 327.29376 299.8125 327.0125Q300.53125 326.71564 301.39062 326.71564Q302.34375 326.71564 303.07812 327.02814Q303.8125 327.325 304.20312 327.9344Q304.59375 328.52814 304.625 329.27814L303.53125 329.35626Q303.4375 328.54376 302.92188 328.1375Q302.42188 327.71564 301.4375 327.71564Q300.40625 327.71564 299.9375 328.09064Q299.46875 328.46564 299.46875 328.9969Q299.46875 329.46564 299.79688 329.7625Q300.125 330.0594 301.5 330.3719Q302.89062 330.6844 303.40625 330.91876Q304.15625 331.27814 304.51562 331.8094Q304.875 332.325 304.875 333.02814Q304.875 333.71564 304.48438 334.325Q304.09375 334.91876 303.35938 335.2625Q302.625 335.59064 301.70312 335.59064Q300.53125 335.59064 299.73438 335.2625Q298.95312 334.91876 298.5 334.23126Q298.0625 333.54376 298.04688 332.6844ZM308.59375 334.5125L308.75 335.4344Q308.29688 335.52814 307.95312 335.52814Q307.375 335.52814 307.0625 335.35626Q306.75 335.16876 306.60938 334.8719Q306.48438 334.575 306.48438 333.6219L306.48438 330.04376L305.71875 330.04376L305.71875 329.23126L306.48438 329.23126L306.48438 327.6844L307.53125 327.0594L307.53125 329.23126L308.59375 329.23126L308.59375 330.04376L307.53125 330.04376L307.53125 333.6844Q307.53125 334.1375 307.57812 334.2625Q307.64062 334.3875 307.76562 334.46564Q307.89062 334.54376 308.125 334.54376Q308.3125 334.54376 308.59375 334.5125ZM313.35938 334.6844Q312.76562 335.1844 312.21875 335.3875Q311.6875 335.59064 311.0625 335.59064Q310.03125 335.59064 309.48438 335.09064Q308.9375 334.59064 308.9375 333.8094Q308.9375 333.35626 309.14062 332.98126Q309.34375 332.59064 309.6875 332.3719Q310.03125 332.1375 310.45312 332.02814Q310.75 331.9344 311.39062 331.85626Q312.65625 331.71564 313.26562 331.4969Q313.26562 331.27814 313.26562 331.23126Q313.26562 330.575 312.96875 330.3094Q312.5625 329.96564 311.76562 329.96564Q311.03125 329.96564 310.67188 330.23126Q310.3125 330.48126 310.14062 331.1375L309.10938 330.9969Q309.25 330.34064 309.57812 329.9344Q309.90625 329.52814 310.51562 329.3094Q311.125 329.09064 311.92188 329.09064Q312.71875 329.09064 313.21875 329.27814Q313.71875 329.46564 313.95312 329.7469Q314.1875 330.02814 314.28125 330.46564Q314.32812 330.73126 314.32812 331.4344L314.32812 332.84064Q314.32812 334.3094 314.39062 334.7Q314.46875 335.09064 314.67188 335.45L313.5625 335.45Q313.40625 335.1219 313.35938 334.6844ZM313.26562 332.325Q312.6875 332.5594 311.54688 332.73126Q310.89062 332.825 310.625 332.95Q310.35938 333.0594 310.20312 333.27814Q310.0625 333.4969 310.0625 333.77814Q310.0625 334.2 310.375 334.48126Q310.70312 334.7625 311.3125 334.7625Q311.92188 334.7625 312.39062 334.4969Q312.875 334.23126 313.09375 333.7625Q313.26562 333.40314 313.26562 332.71564L313.26562 332.325ZM316.29688 335.45L316.29688 329.23126L317.23438 329.23126L317.23438 330.10626Q317.92188 329.09064 319.21875 329.09064Q319.78125 329.09064 320.25 329.29376Q320.73438 329.4969 320.96875 329.825Q321.20312 330.15314 321.29688 330.59064Q321.34375 330.8875 321.34375 331.6219L321.34375 335.45L320.29688 335.45L320.29688 331.66876Q320.29688 331.0125 320.17188 330.7Q320.04688 330.3875 319.73438 330.2Q319.42188 329.9969 319.0 329.9969Q318.32812 329.9969 317.82812 330.4344Q317.34375 330.85626 317.34375 332.04376L317.34375 335.45L316.29688 335.45ZM327.32812 335.45L327.32812 334.66876Q326.73438 335.59064 325.59375 335.59064Q324.84375 335.59064 324.21875 335.1844Q323.59375 334.7625 323.25 334.02814Q322.90625 333.29376 322.90625 332.34064Q322.90625 331.41876 323.21875 330.65314Q323.53125 329.8875 324.15625 329.4969Q324.78125 329.09064 325.54688 329.09064Q326.10938 329.09064 326.54688 329.325Q326.98438 329.5594 327.26562 329.9344L327.26562 326.85626L328.3125 326.85626L328.3125 335.45L327.32812 335.45ZM324.0 332.34064Q324.0 333.54376 324.5 334.1375Q325.0 334.71564 325.6875 334.71564Q326.375 334.71564 326.85938 334.15314Q327.34375 333.59064 327.34375 332.4344Q327.34375 331.15314 326.84375 330.5594Q326.35938 329.96564 325.64062 329.96564Q324.9375 329.96564 324.46875 330.54376Q324.0 331.10626 324.0 332.34064Z" fill-rule="nonzero"/><path fill="#000000" d="M361.39594 335.45L361.39594 326.85626L367.1928 326.85626L367.1928 327.8719L362.53656 327.8719L362.53656 330.52814L366.5678 330.52814L366.5678 331.54376L362.53656 331.54376L362.53656 335.45L361.39594 335.45ZM368.1928 335.45L368.1928 329.23126L369.14594 329.23126L369.14594 330.16876Q369.5053 329.5125 369.8022 329.3094Q370.1147 329.09064 370.4897 329.09064Q371.02094 329.09064 371.5678 329.41876L371.20844 330.40314Q370.8178 330.16876 370.4428 330.16876Q370.08344 330.16876 369.8022 330.3875Q369.53656 330.59064 369.4272 330.96564Q369.2397 331.52814 369.2397 332.1844L369.2397 335.45L368.1928 335.45ZM371.8178 332.34064Q371.8178 330.60626 372.77094 329.77814Q373.5678 329.09064 374.72406 329.09064Q376.0053 329.09064 376.8178 329.9344Q377.64594 330.7625 377.64594 332.2469Q377.64594 333.45 377.28656 334.1375Q376.9272 334.825 376.22406 335.21564Q375.53656 335.59064 374.72406 335.59064Q373.4272 335.59064 372.6147 334.7625Q371.8178 333.91876 371.8178 332.34064ZM372.89594 332.34064Q372.89594 333.52814 373.41156 334.1219Q373.9428 334.71564 374.72406 334.71564Q375.52094 334.71564 376.03656 334.1219Q376.5522 333.52814 376.5522 332.3094Q376.5522 331.15314 376.02094 330.5594Q375.5053 329.96564 374.72406 329.96564Q373.9428 329.96564 373.41156 330.5594Q372.89594 331.1375 372.89594 332.34064ZM379.20844 335.45L379.20844 329.23126L380.14594 329.23126L380.14594 330.10626Q380.83344 329.09064 382.1303 329.09064Q382.6928 329.09064 383.16156 329.29376Q383.64594 329.4969 383.8803 329.825Q384.1147 330.15314 384.20844 330.59064Q384.2553 330.8875 384.2553 331.6219L384.2553 335.45L383.20844 335.45L383.20844 331.66876Q383.20844 331.0125 383.08344 330.7Q382.95844 330.3875 382.64594 330.2Q382.33344 329.9969 381.91156 329.9969Q381.2397 329.9969 380.7397 330.4344Q380.2553 330.85626 380.2553 332.04376L380.2553 335.45L379.20844 335.45ZM388.5053 334.5125L388.66156 335.4344Q388.20844 335.52814 387.8647 335.52814Q387.28656 335.52814 386.97406 335.35626Q386.66156 335.16876 386.52094 334.8719Q386.39594 334.575 386.39594 333.6219L386.39594 330.04376L385.6303 330.04376L385.6303 329.23126L386.39594 329.23126L386.39594 327.6844L387.4428 327.0594L387.4428 329.23126L388.5053 329.23126L388.5053 330.04376L387.4428 330.04376L387.4428 333.6844Q387.4428 334.1375 387.4897 334.2625Q387.5522 334.3875 387.6772 334.46564Q387.8022 334.54376 388.03656 334.54376Q388.22406 334.54376 388.5053 334.5125ZM396.27094 334.6844Q395.6772 335.1844 395.1303 335.3875Q394.59906 335.59064 393.97406 335.59064Q392.9428 335.59064 392.39594 335.09064Q391.84906 334.59064 391.84906 333.8094Q391.84906 333.35626 392.0522 332.98126Q392.2553 332.59064 392.59906 332.3719Q392.9428 332.1375 393.3647 332.02814Q393.66156 331.9344 394.3022 331.85626Q395.5678 331.71564 396.1772 331.4969Q396.1772 331.27814 396.1772 331.23126Q396.1772 330.575 395.8803 330.3094Q395.47406 329.96564 394.6772 329.96564Q393.9428 329.96564 393.58344 330.23126Q393.22406 330.48126 393.0522 331.1375L392.02094 330.9969Q392.16156 330.34064 392.4897 329.9344Q392.8178 329.52814 393.4272 329.3094Q394.03656 329.09064 394.83344 329.09064Q395.6303 329.09064 396.1303 329.27814Q396.6303 329.46564 396.8647 329.7469Q397.09906 330.02814 397.1928 330.46564Q397.2397 330.73126 397.2397 331.4344L397.2397 332.84064Q397.2397 334.3094 397.3022 334.7Q397.3803 335.09064 397.58344 335.45L396.47406 335.45Q396.3178 335.1219 396.27094 334.6844ZM396.1772 332.325Q395.59906 332.5594 394.45844 332.73126Q393.8022 332.825 393.53656 332.95Q393.27094 333.0594 393.1147 333.27814Q392.97406 333.4969 392.97406 333.77814Q392.97406 334.2 393.28656 334.48126Q393.6147 334.7625 394.22406 334.7625Q394.83344 334.7625 395.3022 334.4969Q395.78656 334.23126 396.0053 333.7625Q396.1772 333.40314 396.1772 332.71564L396.1772 332.325ZM399.20844 335.45L399.20844 329.23126L400.14594 329.23126L400.14594 330.10626Q400.83344 329.09064 402.1303 329.09064Q402.6928 329.09064 403.16156 329.29376Q403.64594 329.4969 403.8803 329.825Q404.1147 330.15314 404.20844 330.59064Q404.2553 330.8875 404.2553 331.6219L404.2553 335.45L403.20844 335.45L403.20844 331.66876Q403.20844 331.0125 403.08344 330.7Q402.95844 330.3875 402.64594 330.2Q402.33344 329.9969 401.91156 329.9969Q401.2397 329.9969 400.7397 330.4344Q400.2553 330.85626 400.2553 332.04376L400.2553 335.45L399.20844 335.45ZM410.2397 335.45L410.2397 334.66876Q409.64594 335.59064 408.5053 335.59064Q407.7553 335.59064 407.1303 335.1844Q406.5053 334.7625 406.16156 334.02814Q405.8178 333.29376 405.8178 332.34064Q405.8178 331.41876 406.1303 330.65314Q406.4428 329.8875 407.0678 329.4969Q407.6928 329.09064 408.45844 329.09064Q409.02094 329.09064 409.45844 329.325Q409.89594 329.5594 410.1772 329.9344L410.1772 326.85626L411.22406 326.85626L411.22406 335.45L410.2397 335.45ZM406.91156 332.34064Q406.91156 333.54376 407.41156 334.1375Q407.91156 334.71564 408.59906 334.71564Q409.28656 334.71564 409.77094 334.15314Q410.2553 333.59064 410.2553 332.4344Q410.2553 331.15314 409.7553 330.5594Q409.27094 329.96564 408.5522 329.96564Q407.84906 329.96564 407.3803 330.54376Q406.91156 331.10626 406.91156 332.34064Z" fill-rule="nonzero"/><path fill="#000000" d="M361.78656 347.59064L362.8178 347.4344Q362.91156 348.0594 363.3022 348.3875Q363.70844 348.71564 364.4428 348.71564Q365.16156 348.71564 365.5053 348.4344Q365.8647 348.1375 365.8647 347.73126Q365.8647 347.3719 365.5522 347.16876Q365.33344 347.02814 364.47406 346.8094Q363.3178 346.5125 362.8647 346.3094Q362.4272 346.09064 362.1928 345.71564Q361.95844 345.34064 361.95844 344.8719Q361.95844 344.46564 362.14594 344.10626Q362.33344 343.7469 362.66156 343.5125Q362.91156 343.34064 363.33344 343.21564Q363.7553 343.09064 364.2553 343.09064Q364.97406 343.09064 365.52094 343.3094Q366.08344 343.5125 366.34906 343.8719Q366.6147 344.23126 366.70844 344.825L365.6772 344.96564Q365.6147 344.4969 365.27094 344.23126Q364.9428 343.95 364.3178 343.95Q363.59906 343.95 363.28656 344.2Q362.97406 344.4344 362.97406 344.7625Q362.97406 344.96564 363.09906 345.1219Q363.2397 345.29376 363.5053 345.40314Q363.66156 345.46564 364.4428 345.66876Q365.5678 345.98126 366.0053 346.16876Q366.4428 346.35626 366.6928 346.71564Q366.9428 347.075 366.9428 347.6219Q366.9428 348.15314 366.6303 348.6219Q366.33344 349.075 365.7553 349.34064Q365.1772 349.59064 364.4428 349.59064Q363.22406 349.59064 362.58344 349.09064Q361.95844 348.575 361.78656 347.59064ZM369.20844 342.075L369.20844 340.85626L370.27094 340.85626L370.27094 342.075L369.20844 342.075ZM369.20844 349.45L369.20844 343.23126L370.27094 343.23126L370.27094 349.45L369.20844 349.45ZM376.2397 349.45L376.2397 348.66876Q375.64594 349.59064 374.5053 349.59064Q373.7553 349.59064 373.1303 349.1844Q372.5053 348.7625 372.16156 348.02814Q371.8178 347.29376 371.8178 346.34064Q371.8178 345.41876 372.1303 344.65314Q372.4428 343.8875 373.0678 343.4969Q373.6928 343.09064 374.45844 343.09064Q375.02094 343.09064 375.45844 343.325Q375.89594 343.5594 376.1772 343.9344L376.1772 340.85626L377.22406 340.85626L377.22406 349.45L376.2397 349.45ZM372.91156 346.34064Q372.91156 347.54376 373.41156 348.1375Q373.91156 348.71564 374.59906 348.71564Q375.28656 348.71564 375.77094 348.15314Q376.2553 347.59064 376.2553 346.4344Q376.2553 345.15314 375.7553 344.5594Q375.27094 343.96564 374.5522 343.96564Q373.84906 343.96564 373.3803 344.54376Q372.91156 345.10626 372.91156 346.34064ZM383.45844 347.45L384.5522 347.575Q384.3022 348.52814 383.59906 349.0594Q382.89594 349.59064 381.8178 349.59064Q380.45844 349.59064 379.64594 348.7469Q378.84906 347.90314 378.84906 346.3875Q378.84906 344.825 379.66156 343.96564Q380.47406 343.09064 381.7553 343.09064Q383.0053 343.09064 383.78656 343.9344Q384.58344 344.77814 384.58344 346.325Q384.58344 346.41876 384.58344 346.60626L379.9428 346.60626Q380.0053 347.6375 380.52094 348.1844Q381.03656 348.71564 381.8178 348.71564Q382.39594 348.71564 382.8022 348.41876Q383.22406 348.10626 383.45844 347.45ZM380.0053 345.7469L383.47406 345.7469Q383.41156 344.95 383.08344 344.5594Q382.5678 343.95 381.77094 343.95Q381.03656 343.95 380.53656 344.4344Q380.0522 344.91876 380.0053 345.7469ZM388.78656 347.59064L389.8178 347.4344Q389.91156 348.0594 390.3022 348.3875Q390.70844 348.71564 391.4428 348.71564Q392.16156 348.71564 392.5053 348.4344Q392.8647 348.1375 392.8647 347.73126Q392.8647 347.3719 392.5522 347.16876Q392.33344 347.02814 391.47406 346.8094Q390.3178 346.5125 389.8647 346.3094Q389.4272 346.09064 389.1928 345.71564Q388.95844 345.34064 388.95844 344.8719Q388.95844 344.46564 389.14594 344.10626Q389.33344 343.7469 389.66156 343.5125Q389.91156 343.34064 390.33344 343.21564Q390.7553 343.09064 391.2553 343.09064Q391.97406 343.09064 392.52094 343.3094Q393.08344 343.5125 393.34906 343.8719Q393.6147 344.23126 393.70844 344.825L392.6772 344.96564Q392.6147 344.4969 392.27094 344.23126Q391.9428 343.95 391.3178 343.95Q390.59906 343.95 390.28656 344.2Q389.97406 344.4344 389.97406 344.7625Q389.97406 344.96564 390.09906 345.1219Q390.2397 345.29376 390.5053 345.40314Q390.66156 345.46564 391.4428 345.66876Q392.5678 345.98126 393.0053 346.16876Q393.4428 346.35626 393.6928 346.71564Q393.9428 347.075 393.9428 347.6219Q393.9428 348.15314 393.6303 348.6219Q393.33344 349.075 392.7553 349.34064Q392.1772 349.59064 391.4428 349.59064Q390.22406 349.59064 389.58344 349.09064Q388.95844 348.575 388.78656 347.59064ZM396.20844 351.84064L396.20844 343.23126L397.16156 343.23126L397.16156 344.02814Q397.5053 343.5594 397.9272 343.325Q398.3647 343.09064 398.97406 343.09064Q399.77094 343.09064 400.3803 343.4969Q400.9897 343.90314 401.28656 344.65314Q401.59906 345.40314 401.59906 346.29376Q401.59906 347.2469 401.2553 348.0125Q400.9272 348.77814 400.27094 349.1844Q399.6147 349.59064 398.89594 349.59064Q398.3647 349.59064 397.9428 349.3719Q397.52094 349.1375 397.2553 348.8094L397.2553 351.84064L396.20844 351.84064ZM397.16156 346.3719Q397.16156 347.575 397.64594 348.15314Q398.1303 348.71564 398.8178 348.71564Q399.52094 348.71564 400.02094 348.1219Q400.52094 347.52814 400.52094 346.27814Q400.52094 345.09064 400.03656 344.5125Q399.5522 343.91876 398.8647 343.91876Q398.1928 343.91876 397.6772 344.54376Q397.16156 345.16876 397.16156 346.3719ZM403.1772 349.45L403.1772 340.85626L404.2397 340.85626L404.2397 349.45L403.1772 349.45ZM406.20844 342.075L406.20844 340.85626L407.27094 340.85626L407.27094 342.075L406.20844 342.075ZM406.20844 349.45L406.20844 343.23126L407.27094 343.23126L407.27094 349.45L406.20844 349.45ZM411.5053 348.5125L411.66156 349.4344Q411.20844 349.52814 410.8647 349.52814Q410.28656 349.52814 409.97406 349.35626Q409.66156 349.16876 409.52094 348.8719Q409.39594 348.575 409.39594 347.6219L409.39594 344.04376L408.6303 344.04376L408.6303 343.23126L409.39594 343.23126L409.39594 341.6844L410.4428 341.0594L410.4428 343.23126L411.5053 343.23126L411.5053 344.04376L410.4428 344.04376L410.4428 347.6844Q410.4428 348.1375 410.4897 348.2625Q410.5522 348.3875 410.6772 348.46564Q410.8022 348.54376 411.03656 348.54376Q411.22406 348.54376 411.5053 348.5125Z" fill-rule="nonzero"/><path fill="#000000" d="M428.87 332.6844L429.9325 332.59064Q430.01062 333.2469 430.29187 333.65314Q430.57312 334.0594 431.15125 334.325Q431.745 334.575 432.47937 334.575Q433.12 334.575 433.62 334.3875Q434.12 334.1844 434.35437 333.85626Q434.60437 333.5125 434.60437 333.1219Q434.60437 332.71564 434.37 332.41876Q434.13562 332.10626 433.60437 331.90314Q433.245 331.7625 432.0575 331.48126Q430.88562 331.2 430.41687 330.95Q429.79187 330.6219 429.495 330.15314Q429.19812 329.66876 429.19812 329.075Q429.19812 328.4344 429.5575 327.8719Q429.9325 327.29376 430.63562 327.0125Q431.35437 326.71564 432.21375 326.71564Q433.16687 326.71564 433.90125 327.02814Q434.63562 327.325 435.02625 327.9344Q435.41687 328.52814 435.44812 329.27814L434.35437 329.35626Q434.26062 328.54376 433.745 328.1375Q433.245 327.71564 432.26062 327.71564Q431.22937 327.71564 430.76062 328.09064Q430.29187 328.46564 430.29187 328.9969Q430.29187 329.46564 430.62 329.7625Q430.94812 330.0594 432.32312 330.3719Q433.71375 330.6844 434.22937 330.91876Q434.97937 331.27814 435.33875 331.8094Q435.69812 332.325 435.69812 333.02814Q435.69812 333.71564 435.3075 334.325Q434.91687 334.91876 434.1825 335.2625Q433.44812 335.59064 432.52625 335.59064Q431.35437 335.59064 430.5575 335.2625Q429.77625 334.91876 429.32312 334.23126Q428.88562 333.54376 428.87 332.6844ZM437.12 328.075L437.12 326.85626L438.1825 326.85626L438.1825 328.075L437.12 328.075ZM437.12 335.45L437.12 329.23126L438.1825 329.23126L438.1825 335.45L437.12 335.45ZM440.12 335.45L440.12 329.23126L441.0575 329.23126L441.0575 330.10626Q441.745 329.09064 443.04187 329.09064Q443.60437 329.09064 444.07312 329.29376Q444.5575 329.4969 444.79187 329.825Q445.02625 330.15314 445.12 330.59064Q445.16687 330.8875 445.16687 331.6219L445.16687 335.45L444.12 335.45L444.12 331.66876Q444.12 331.0125 443.995 330.7Q443.87 330.3875 443.5575 330.2Q443.245 329.9969 442.82312 329.9969Q442.15125 329.9969 441.65125 330.4344Q441.16687 330.85626 441.16687 332.04376L441.16687 335.45L440.12 335.45ZM446.91687 335.96564L447.94812 336.1219Q448.01062 336.59064 448.3075 336.8094Q448.69812 337.10626 449.37 337.10626Q450.10437 337.10626 450.495 336.8094Q450.90125 336.5125 451.04187 335.9969Q451.13562 335.66876 451.12 334.6375Q450.4325 335.45 449.40125 335.45Q448.12 335.45 447.41687 334.52814Q446.71375 333.59064 446.71375 332.3094Q446.71375 331.41876 447.02625 330.66876Q447.35437 329.90314 447.96375 329.4969Q448.57312 329.09064 449.40125 329.09064Q450.51062 329.09064 451.22937 329.98126L451.22937 329.23126L452.19812 329.23126L452.19812 334.60626Q452.19812 336.0594 451.90125 336.66876Q451.60437 337.27814 450.96375 337.6219Q450.32312 337.98126 449.38562 337.98126Q448.27625 337.98126 447.58875 337.48126Q446.90125 336.98126 446.91687 335.96564ZM447.79187 332.23126Q447.79187 333.45 448.27625 334.0125Q448.76062 334.575 449.495 334.575Q450.22937 334.575 450.71375 334.0125Q451.21375 333.45 451.21375 332.2625Q451.21375 331.1219 450.69812 330.54376Q450.19812 329.96564 449.47937 329.96564Q448.77625 329.96564 448.27625 330.54376Q447.79187 331.10626 447.79187 332.23126ZM454.08875 335.45L454.08875 326.85626L455.15125 326.85626L455.15125 335.45L454.08875 335.45ZM461.37 333.45L462.46375 333.575Q462.21375 334.52814 461.51062 335.0594Q460.8075 335.59064 459.72937 335.59064Q458.37 335.59064 457.5575 334.7469Q456.76062 333.90314 456.76062 332.3875Q456.76062 330.825 457.57312 329.96564Q458.38562 329.09064 459.66687 329.09064Q460.91687 329.09064 461.69812 329.9344Q462.495 330.77814 462.495 332.325Q462.495 332.41876 462.495 332.60626L457.85437 332.60626Q457.91687 333.6375 458.4325 334.1844Q458.94812 334.71564 459.72937 334.71564Q460.3075 334.71564 460.71375 334.41876Q461.13562 334.10626 461.37 333.45ZM457.91687 331.7469L461.38562 331.7469Q461.32312 330.95 460.995 330.5594Q460.47937 329.95 459.6825 329.95Q458.94812 329.95 458.44812 330.4344Q457.96375 330.91876 457.91687 331.7469ZM466.69812 333.59064L467.72937 333.4344Q467.82312 334.0594 468.21375 334.3875Q468.62 334.71564 469.35437 334.71564Q470.07312 334.71564 470.41687 334.4344Q470.77625 334.1375 470.77625 333.73126Q470.77625 333.3719 470.46375 333.16876Q470.245 333.02814 469.38562 332.8094Q468.22937 332.5125 467.77625 332.3094Q467.33875 332.09064 467.10437 331.71564Q466.87 331.34064 466.87 330.8719Q466.87 330.46564 467.0575 330.10626Q467.245 329.7469 467.57312 329.5125Q467.82312 329.34064 468.245 329.21564Q468.66687 329.09064 469.16687 329.09064Q469.88562 329.09064 470.4325 329.3094Q470.995 329.5125 471.26062 329.8719Q471.52625 330.23126 471.62 330.825L470.58875 330.96564Q470.52625 330.4969 470.1825 330.23126Q469.85437 329.95 469.22937 329.95Q468.51062 329.95 468.19812 330.2Q467.88562 330.4344 467.88562 330.7625Q467.88562 330.96564 468.01062 331.1219Q468.15125 331.29376 468.41687 331.40314Q468.57312 331.46564 469.35437 331.66876Q470.47937 331.98126 470.91687 332.16876Q471.35437 332.35626 471.60437 332.71564Q471.85437 333.075 471.85437 333.6219Q471.85437 334.15314 471.54187 334.6219Q471.245 335.075 470.66687 335.34064Q470.08875 335.59064 469.35437 335.59064Q468.13562 335.59064 467.495 335.09064Q466.87 334.575 466.69812 333.59064ZM476.41687 334.5125L476.57312 335.4344Q476.12 335.52814 475.77625 335.52814Q475.19812 335.52814 474.88562 335.35626Q474.57312 335.16876 474.4325 334.8719Q474.3075 334.575 474.3075 333.6219L474.3075 330.04376L473.54187 330.04376L473.54187 329.23126L474.3075 329.23126L474.3075 327.6844L475.35437 327.0594L475.35437 329.23126L476.41687 329.23126L476.41687 330.04376L475.35437 330.04376L475.35437 333.6844Q475.35437 334.1375 475.40125 334.2625Q475.46375 334.3875 475.58875 334.46564Q475.71375 334.54376 475.94812 334.54376Q476.13562 334.54376 476.41687 334.5125ZM481.37 333.45L482.46375 333.575Q482.21375 334.52814 481.51062 335.0594Q480.8075 335.59064 479.72937 335.59064Q478.37 335.59064 477.5575 334.7469Q476.76062 333.90314 476.76062 332.3875Q476.76062 330.825 477.57312 329.96564Q478.38562 329.09064 479.66687 329.09064Q480.91687 329.09064 481.69812 329.9344Q482.495 330.77814 482.495 332.325Q482.495 332.41876 482.495 332.60626L477.85437 332.60626Q477.91687 333.6375 478.4325 334.1844Q478.94812 334.71564 479.72937 334.71564Q480.3075 334.71564 480.71375 334.41876Q481.13562 334.10626 481.37 333.45ZM477.91687 331.7469L481.38562 331.7469Q481.32312 330.95 480.995 330.5594Q480.47937 329.95 479.6825 329.95Q478.94812 329.95 478.44812 330.4344Q477.96375 330.91876 477.91687 331.7469ZM484.12 337.84064L484.12 329.23126L485.07312 329.23126L485.07312 330.02814Q485.41687 329.5594 485.83875 329.325Q486.27625 329.09064 486.88562 329.09064Q487.6825 329.09064 488.29187 329.4969Q488.90125 329.90314 489.19812 330.65314Q489.51062 331.40314 489.51062 332.29376Q489.51062 333.2469 489.16687 334.0125Q488.83875 334.77814 488.1825 335.1844Q487.52625 335.59064 486.8075 335.59064Q486.27625 335.59064 485.85437 335.3719Q485.4325 335.1375 485.16687 334.8094L485.16687 337.84064L484.12 337.84064ZM485.07312 332.3719Q485.07312 333.575 485.5575 334.15314Q486.04187 334.71564 486.72937 334.71564Q487.4325 334.71564 487.9325 334.1219Q488.4325 333.52814 488.4325 332.27814Q488.4325 331.09064 487.94812 330.5125Q487.46375 329.91876 486.77625 329.91876Q486.10437 329.91876 485.58875 330.54376Q485.07312 331.16876 485.07312 332.3719Z" fill-rule="nonzero"/><path fill="#000000" d="M519.2972 332.4344L520.4222 332.73126Q520.0628 334.1219 519.1409 334.85626Q518.21906 335.59064 516.8753 335.59064Q515.4847 335.59064 514.6097 335.02814Q513.7347 334.46564 513.28156 333.40314Q512.8284 332.325 512.8284 331.09064Q512.8284 329.7469 513.34406 328.7469Q513.8597 327.7469 514.7972 327.23126Q515.7503 326.71564 516.8909 326.71564Q518.1722 326.71564 519.0472 327.3719Q519.9378 328.02814 520.28156 329.21564L519.15656 329.48126Q518.8597 328.54376 518.28156 328.1219Q517.71906 327.6844 516.8597 327.6844Q515.8753 327.6844 515.2034 328.16876Q514.5472 328.6375 514.2659 329.4344Q514.0003 330.23126 514.0003 331.09064Q514.0003 332.1844 514.3128 332.9969Q514.6409 333.8094 515.3128 334.21564Q515.9847 334.6219 516.78156 334.6219Q517.7347 334.6219 518.3909 334.075Q519.0628 333.52814 519.2972 332.4344ZM522.0159 335.45L522.0159 329.23126L522.96906 329.23126L522.96906 330.16876Q523.3284 329.5125 523.6253 329.3094Q523.9378 329.09064 524.3128 329.09064Q524.84406 329.09064 525.3909 329.41876L525.03156 330.40314Q524.6409 330.16876 524.2659 330.16876Q523.90656 330.16876 523.6253 330.3875Q523.3597 330.59064 523.2503 330.96564Q523.0628 331.52814 523.0628 332.1844L523.0628 335.45L522.0159 335.45ZM525.6409 332.34064Q525.6409 330.60626 526.59406 329.77814Q527.3909 329.09064 528.5472 329.09064Q529.8284 329.09064 530.6409 329.9344Q531.46906 330.7625 531.46906 332.2469Q531.46906 333.45 531.1097 334.1375Q530.7503 334.825 530.0472 335.21564Q529.3597 335.59064 528.5472 335.59064Q527.2503 335.59064 526.4378 334.7625Q525.6409 333.91876 525.6409 332.34064ZM526.71906 332.34064Q526.71906 333.52814 527.2347 334.1219Q527.7659 334.71564 528.5472 334.71564Q529.34406 334.71564 529.8597 334.1219Q530.3753 333.52814 530.3753 332.3094Q530.3753 331.15314 529.84406 330.5594Q529.3284 329.96564 528.5472 329.96564Q527.7659 329.96564 527.2347 330.5594Q526.71906 331.1375 526.71906 332.34064ZM537.1097 335.45L537.1097 334.52814Q536.3753 335.59064 535.1253 335.59064Q534.5784 335.59064 534.09406 335.3875Q533.6253 335.16876 533.3909 334.85626Q533.15656 334.52814 533.0628 334.0594Q533.0003 333.7625 533.0003 333.075L533.0003 329.23126L534.0628 329.23126L534.0628 332.6844Q534.0628 333.4969 534.1253 333.79376Q534.21906 334.2 534.53156 334.45Q534.8597 334.6844 535.34406 334.6844Q535.8128 334.6844 536.21906 334.45Q536.6409 334.2 536.8128 333.77814Q537.0003 333.35626 537.0003 332.5594L537.0003 329.23126L538.0472 329.23126L538.0472 335.45L537.1097 335.45ZM544.09406 333.16876L545.1253 333.3094Q544.9534 334.3719 544.2503 334.98126Q543.5472 335.59064 542.53156 335.59064Q541.2503 335.59064 540.46906 334.7625Q539.7034 333.91876 539.7034 332.35626Q539.7034 331.35626 540.03156 330.60626Q540.3753 329.84064 541.0472 329.46564Q541.7347 329.09064 542.5472 329.09064Q543.5472 329.09064 544.1878 329.60626Q544.84406 330.10626 545.03156 331.0594L544.0003 331.21564Q543.8597 330.59064 543.4847 330.27814Q543.1097 329.95 542.5784 329.95Q541.78156 329.95 541.28156 330.52814Q540.78156 331.09064 540.78156 332.325Q540.78156 333.59064 541.2659 334.15314Q541.7503 334.71564 542.5159 334.71564Q543.1409 334.71564 543.5472 334.34064Q543.96906 333.96564 544.09406 333.16876ZM546.03156 335.45L546.03156 326.85626L547.0784 326.85626L547.0784 329.9344Q547.8128 329.09064 548.9378 329.09064Q549.6409 329.09064 550.1409 329.3719Q550.65656 329.6375 550.8753 330.1219Q551.09406 330.59064 551.09406 331.5125L551.09406 335.45L550.0472 335.45L550.0472 331.5125Q550.0472 330.71564 549.7034 330.35626Q549.3597 329.9969 548.7347 329.9969Q548.2659 329.9969 547.84406 330.2469Q547.4378 330.48126 547.2503 330.90314Q547.0784 331.3094 547.0784 332.04376L547.0784 335.45L546.03156 335.45Z" fill-rule="nonzero"/><path fill="#4285f4" d="M225.5 20.55C225.5 19.997715 225.94771 19.55 226.5 19.55L236.5 19.55C237.05229 19.55 237.5 19.997715 237.5 20.55L237.5 30.55C237.5 31.102285 237.05229 31.55 236.5 31.55L226.5 31.55C225.94771 31.55 225.5 31.102285 225.5 30.55Z" fill-rule="nonzero"/><path fill="#1a1a1a" d="M245.48438 29.55L248.78125 20.95625L250.0 20.95625L253.51562 29.55L252.23438 29.55L251.21875 26.940624L247.64062 26.940624L246.6875 29.55L245.48438 29.55ZM247.96875 26.01875L250.875 26.01875L249.98438 23.64375Q249.5625 22.565624 249.375 21.8625Q249.20312 22.690624 248.90625 23.503124L247.96875 26.01875ZM253.26562 29.55L253.26562 20.95625L254.32812 20.95625L254.32812 29.55L253.26562 29.55ZM256.26562 29.55L256.26562 20.95625L257.32812 20.95625L257.32812 29.55L256.26562 29.55Z" fill-rule="nonzero"/><path fill="#ea4335" d="M274.5 20.55C274.5 19.997715 274.94772 19.55 275.5 19.55L285.5 19.55C286.05228 19.55 286.5 19.997715 286.5 20.55L286.5 30.55C286.5 31.102285 286.05228 31.55 285.5 31.55L275.5 31.55C274.94772 31.55 274.5 31.102285 274.5 30.55Z" fill-rule="nonzero"/><path fill="#1a1a1a" d="M295.48438 29.55L295.48438 20.95625L301.28125 20.95625L301.28125 21.971874L296.625 21.971874L296.625 24.628124L300.65625 24.628124L300.65625 25.64375L296.625 25.64375L296.625 29.55L295.48438 29.55ZM302.29688 22.175L302.29688 20.95625L303.35938 20.95625L303.35938 22.175L302.29688 22.175ZM302.29688 29.55L302.29688 23.33125L303.35938 23.33125L303.35938 29.55L302.29688 29.55ZM305.29688 29.55L305.29688 23.33125L306.23438 23.33125L306.23438 24.20625Q306.92188 23.190624 308.21875 23.190624Q308.78125 23.190624 309.25 23.39375Q309.73438 23.596874 309.96875 23.925Q310.20312 24.253124 310.29688 24.690624Q310.34375 24.9875 310.34375 25.721874L310.34375 29.55L309.29688 29.55L309.29688 25.76875Q309.29688 25.1125 309.17188 24.8Q309.04688 24.4875 308.73438 24.3Q308.42188 24.096874 308.0 24.096874Q307.32812 24.096874 306.82812 24.534374Q306.34375 24.95625 306.34375 26.14375L306.34375 29.55L305.29688 29.55ZM312.09375 30.065624L313.125 30.221874Q313.1875 30.690624 313.48438 30.909374Q313.875 31.20625 314.54688 31.20625Q315.28125 31.20625 315.67188 30.909374Q316.07812 30.6125 316.21875 30.096874Q316.3125 29.76875 316.29688 28.7375Q315.60938 29.55 314.57812 29.55Q313.29688 29.55 312.59375 28.628124Q311.89062 27.690624 311.89062 26.409374Q311.89062 25.51875 312.20312 24.76875Q312.53125 24.003124 313.14062 23.596874Q313.75 23.190624 314.57812 23.190624Q315.6875 23.190624 316.40625 24.08125L316.40625 23.33125L317.375 23.33125L317.375 28.70625Q317.375 30.159374 317.07812 30.76875Q316.78125 31.378124 316.14062 31.721874Q315.5 32.08125 314.5625 32.08125Q313.45312 32.08125 312.76562 31.58125Q312.07812 31.08125 312.09375 30.065624ZM312.96875 26.33125Q312.96875 27.55 313.45312 28.1125Q313.9375 28.675 314.67188 28.675Q315.40625 28.675 315.89062 28.1125Q316.39062 27.55 316.39062 26.3625Q316.39062 25.221874 315.875 24.64375Q315.375 24.065624 314.65625 24.065624Q313.95312 24.065624 313.45312 24.64375Q312.96875 25.20625 312.96875 26.33125ZM323.54688 27.55L324.64062 27.675Q324.39062 28.628124 323.6875 29.159374Q322.98438 29.690624 321.90625 29.690624Q320.54688 29.690624 319.73438 28.846874Q318.9375 28.003124 318.9375 26.4875Q318.9375 24.925 319.75 24.065624Q320.5625 23.190624 321.84375 23.190624Q323.09375 23.190624 323.875 24.034374Q324.67188 24.878124 324.67188 26.425Q324.67188 26.51875 324.67188 26.70625L320.03125 26.70625Q320.09375 27.7375 320.60938 28.284374Q321.125 28.815624 321.90625 28.815624Q322.48438 28.815624 322.89062 28.51875Q323.3125 28.20625 323.54688 27.55ZM320.09375 25.846874L323.5625 25.846874Q323.5 25.05 323.17188 24.659374Q322.65625 24.05 321.85938 24.05Q321.125 24.05 320.625 24.534374Q320.14062 25.01875 320.09375 25.846874ZM326.28125 29.55L326.28125 23.33125L327.23438 23.33125L327.23438 24.26875Q327.59375 23.6125 327.89062 23.409374Q328.20312 23.190624 328.57812 23.190624Q329.10938 23.190624 329.65625 23.51875L329.29688 24.503124Q328.90625 24.26875 328.53125 24.26875Q328.17188 24.26875 327.89062 24.4875Q327.625 24.690624 327.51562 25.065624Q327.32812 25.628124 327.32812 26.284374L327.32812 29.55L326.28125 29.55ZM334.4375 29.55L332.53125 23.33125L333.625 23.33125L334.60938 26.925L334.98438 28.253124Q335.01562 28.159374 335.3125 26.971874L336.29688 23.33125L337.375 23.33125L338.3125 26.940624L338.625 28.128124L338.98438 26.925L340.04688 23.33125L341.07812 23.33125L339.125 29.55L338.03125 29.55L337.04688 25.815624L336.79688 24.76875L335.54688 29.55L334.4375 29.55ZM346.35938 28.784374Q345.76562 29.284374 345.21875 29.4875Q344.6875 29.690624 344.0625 29.690624Q343.03125 29.690624 342.48438 29.190624Q341.9375 28.690624 341.9375 27.909374Q341.9375 27.45625 342.14062 27.08125Q342.34375 26.690624 342.6875 26.471874Q343.03125 26.2375 343.45312 26.128124Q343.75 26.034374 344.39062 25.95625Q345.65625 25.815624 346.26562 25.596874Q346.26562 25.378124 346.26562 25.33125Q346.26562 24.675 345.96875 24.409374Q345.5625 24.065624 344.76562 24.065624Q344.03125 24.065624 343.67188 24.33125Q343.3125 24.58125 343.14062 25.2375L342.10938 25.096874Q342.25 24.440624 342.57812 24.034374Q342.90625 23.628124 343.51562 23.409374Q344.125 23.190624 344.92188 23.190624Q345.71875 23.190624 346.21875 23.378124Q346.71875 23.565624 346.95312 23.846874Q347.1875 24.128124 347.28125 24.565624Q347.32812 24.83125 347.32812 25.534374L347.32812 26.940624Q347.32812 28.409374 347.39062 28.8Q347.46875 29.190624 347.67188 29.55L346.5625 29.55Q346.40625 29.221874 346.35938 28.784374ZM346.26562 26.425Q345.6875 26.659374 344.54688 26.83125Q343.89062 26.925 343.625 27.05Q343.35938 27.159374 343.20312 27.378124Q343.0625 27.596874 343.0625 27.878124Q343.0625 28.3 343.375 28.58125Q343.70312 28.8625 344.3125 28.8625Q344.92188 28.8625 345.39062 28.596874Q345.875 28.33125 346.09375 27.8625Q346.26562 27.503124 346.26562 26.815624L346.26562 26.425ZM349.26562 29.55L349.26562 20.95625L350.32812 20.95625L350.32812 29.55L349.26562 29.55ZM352.29688 29.55L352.29688 20.95625L353.35938 20.95625L353.35938 25.8625L355.84375 23.33125L357.21875 23.33125L354.82812 25.628124L357.45312 29.55L356.15625 29.55L354.09375 26.3625L353.35938 27.08125L353.35938 29.55L352.29688 29.55ZM358.29688 22.175L358.29688 20.95625L359.35938 20.95625L359.35938 22.175L358.29688 22.175ZM358.29688 29.55L358.29688 23.33125L359.35938 23.33125L359.35938 29.55L358.29688 29.55ZM361.29688 29.55L361.29688 23.33125L362.23438 23.33125L362.23438 24.20625Q362.92188 23.190624 364.21875 23.190624Q364.78125 23.190624 365.25 23.39375Q365.73438 23.596874 365.96875 23.925Q366.20312 24.253124 366.29688 24.690624Q366.34375 24.9875 366.34375 25.721874L366.34375 29.55L365.29688 29.55L365.29688 25.76875Q365.29688 25.1125 365.17188 24.8Q365.04688 24.4875 364.73438 24.3Q364.42188 24.096874 364.0 24.096874Q363.32812 24.096874 362.82812 24.534374Q362.34375 24.95625 362.34375 26.14375L362.34375 29.55L361.29688 29.55ZM368.09375 30.065624L369.125 30.221874Q369.1875 30.690624 369.48438 30.909374Q369.875 31.20625 370.54688 31.20625Q371.28125 31.20625 371.67188 30.909374Q372.07812 30.6125 372.21875 30.096874Q372.3125 29.76875 372.29688 28.7375Q371.60938 29.55 370.57812 29.55Q369.29688 29.55 368.59375 28.628124Q367.89062 27.690624 367.89062 26.409374Q367.89062 25.51875 368.20312 24.76875Q368.53125 24.003124 369.14062 23.596874Q369.75 23.190624 370.57812 23.190624Q371.6875 23.190624 372.40625 24.08125L372.40625 23.33125L373.375 23.33125L373.375 28.70625Q373.375 30.159374 373.07812 30.76875Q372.78125 31.378124 372.14062 31.721874Q371.5 32.08125 370.5625 32.08125Q369.45312 32.08125 368.76562 31.58125Q368.07812 31.08125 368.09375 30.065624ZM368.96875 26.33125Q368.96875 27.55 369.45312 28.1125Q369.9375 28.675 370.67188 28.675Q371.40625 28.675 371.89062 28.1125Q372.39062 27.55 372.39062 26.3625Q372.39062 25.221874 371.875 24.64375Q371.375 24.065624 370.65625 24.065624Q369.95312 24.065624 369.45312 24.64375Q368.96875 25.20625 368.96875 26.33125Z" fill-rule="nonzero"/></svg>